solid CATIA STL
  facet normal  0.000000e+000  0.000000e+000  1.000000e+000
    outer loop
      vertex  2.000000e+001  5.000000e+001  2.000000e+001
      vertex  7.071068e+000  5.707107e+001  2.000000e+001
      vertex  9.238795e+000  5.382684e+001  2.000000e+001
    endloop
  endfacet
  facet normal  0.000000e+000  0.000000e+000  1.000000e+000
    outer loop
      vertex  2.000000e+001  5.000000e+001  2.000000e+001
      vertex  9.238795e+000  5.382684e+001  2.000000e+001
      vertex  1.000000e+001  5.000000e+001  2.000000e+001
    endloop
  endfacet
  facet normal  -0.000000e+000  0.000000e+000  1.000000e+000
    outer loop
      vertex  2.000000e+001  5.000000e+001  2.000000e+001
      vertex  1.000000e+001  5.000000e+001  2.000000e+001
      vertex  9.238795e+000  4.617316e+001  2.000000e+001
    endloop
  endfacet
  facet normal  -0.000000e+000  0.000000e+000  1.000000e+000
    outer loop
      vertex  2.000000e+001  5.000000e+001  2.000000e+001
      vertex  9.238795e+000  4.617316e+001  2.000000e+001
      vertex  7.071068e+000  4.292893e+001  2.000000e+001
    endloop
  endfacet
  facet normal  -0.000000e+000  0.000000e+000  1.000000e+000
    outer loop
      vertex  2.000000e+001  5.000000e+001  2.000000e+001
      vertex  7.071068e+000  4.292893e+001  2.000000e+001
      vertex  3.826834e+000  4.076120e+001  2.000000e+001
    endloop
  endfacet
  facet normal  0.000000e+000  0.000000e+000  1.000000e+000
    outer loop
      vertex  2.000000e+001  5.000000e+001  2.000000e+001
      vertex  3.826834e+000  4.076120e+001  2.000000e+001
      vertex  2.076120e+001  4.617316e+001  2.000000e+001
    endloop
  endfacet
  facet normal  -0.000000e+000  0.000000e+000  1.000000e+000
    outer loop
      vertex  5.000000e+001  1.000000e+002  2.000000e+001
      vertex -5.000000e+001  1.000000e+002  2.000000e+001
      vertex  3.382684e+001  5.923880e+001  2.000000e+001
    endloop
  endfacet
  facet normal  -0.000000e+000  0.000000e+000  1.000000e+000
    outer loop
      vertex  5.000000e+001  1.000000e+002  2.000000e+001
      vertex  3.382684e+001  5.923880e+001  2.000000e+001
      vertex  3.707107e+001  5.707107e+001  2.000000e+001
    endloop
  endfacet
  facet normal  -0.000000e+000  0.000000e+000  1.000000e+000
    outer loop
      vertex  5.000000e+001  1.000000e+002  2.000000e+001
      vertex  3.707107e+001  5.707107e+001  2.000000e+001
      vertex  3.923880e+001  5.382684e+001  2.000000e+001
    endloop
  endfacet
  facet normal  -0.000000e+000  0.000000e+000  1.000000e+000
    outer loop
      vertex  5.000000e+001  1.000000e+002  2.000000e+001
      vertex  3.923880e+001  5.382684e+001  2.000000e+001
      vertex  4.000000e+001  5.000000e+001  2.000000e+001
    endloop
  endfacet
  facet normal  -0.000000e+000  0.000000e+000  1.000000e+000
    outer loop
      vertex  5.000000e+001  1.000000e+002  2.000000e+001
      vertex  4.000000e+001  5.000000e+001  2.000000e+001
      vertex  5.000000e+001  2.000000e+001  2.000000e+001
    endloop
  endfacet
  facet normal  0.000000e+000  0.000000e+000  1.000000e+000
    outer loop
      vertex -5.000000e+001  1.000000e+002  2.000000e+001
      vertex -5.000000e+001  2.000000e+001  2.000000e+001
      vertex -1.000000e+001  5.000000e+001  2.000000e+001
    endloop
  endfacet
  facet normal  0.000000e+000  -0.000000e+000  1.000000e+000
    outer loop
      vertex -5.000000e+001  1.000000e+002  2.000000e+001
      vertex -1.000000e+001  5.000000e+001  2.000000e+001
      vertex -9.238795e+000  5.382684e+001  2.000000e+001
    endloop
  endfacet
  facet normal  0.000000e+000  -0.000000e+000  1.000000e+000
    outer loop
      vertex -5.000000e+001  1.000000e+002  2.000000e+001
      vertex -9.238795e+000  5.382684e+001  2.000000e+001
      vertex -7.071068e+000  5.707107e+001  2.000000e+001
    endloop
  endfacet
  facet normal  0.000000e+000  -0.000000e+000  1.000000e+000
    outer loop
      vertex -5.000000e+001  1.000000e+002  2.000000e+001
      vertex -7.071068e+000  5.707107e+001  2.000000e+001
      vertex -3.826834e+000  5.923880e+001  2.000000e+001
    endloop
  endfacet
  facet normal  0.000000e+000  -0.000000e+000  1.000000e+000
    outer loop
      vertex -5.000000e+001  1.000000e+002  2.000000e+001
      vertex -3.826834e+000  5.923880e+001  2.000000e+001
      vertex  3.000963e-015  6.000000e+001  2.000000e+001
    endloop
  endfacet
  facet normal  -0.000000e+000  -0.000000e+000  1.000000e+000
    outer loop
      vertex -5.000000e+001  1.000000e+002  2.000000e+001
      vertex  3.000963e-015  6.000000e+001  2.000000e+001
      vertex  3.826834e+000  5.923880e+001  2.000000e+001
    endloop
  endfacet
  facet normal  -0.000000e+000  -0.000000e+000  1.000000e+000
    outer loop
      vertex -5.000000e+001  1.000000e+002  2.000000e+001
      vertex  3.826834e+000  5.923880e+001  2.000000e+001
      vertex  7.071068e+000  5.707107e+001  2.000000e+001
    endloop
  endfacet
  facet normal  -0.000000e+000  -0.000000e+000  1.000000e+000
    outer loop
      vertex -5.000000e+001  1.000000e+002  2.000000e+001
      vertex  7.071068e+000  5.707107e+001  2.000000e+001
      vertex  2.000000e+001  5.000000e+001  2.000000e+001
    endloop
  endfacet
  facet normal  0.000000e+000  -0.000000e+000  1.000000e+000
    outer loop
      vertex -5.000000e+001  1.000000e+002  2.000000e+001
      vertex  2.000000e+001  5.000000e+001  2.000000e+001
      vertex  2.076120e+001  5.382684e+001  2.000000e+001
    endloop
  endfacet
  facet normal  0.000000e+000  -0.000000e+000  1.000000e+000
    outer loop
      vertex -5.000000e+001  1.000000e+002  2.000000e+001
      vertex  2.076120e+001  5.382684e+001  2.000000e+001
      vertex  2.292893e+001  5.707107e+001  2.000000e+001
    endloop
  endfacet
  facet normal  0.000000e+000  -0.000000e+000  1.000000e+000
    outer loop
      vertex -5.000000e+001  1.000000e+002  2.000000e+001
      vertex  2.292893e+001  5.707107e+001  2.000000e+001
      vertex  2.617317e+001  5.923880e+001  2.000000e+001
    endloop
  endfacet
  facet normal  0.000000e+000  -0.000000e+000  1.000000e+000
    outer loop
      vertex -5.000000e+001  1.000000e+002  2.000000e+001
      vertex  2.617317e+001  5.923880e+001  2.000000e+001
      vertex  3.000000e+001  6.000000e+001  2.000000e+001
    endloop
  endfacet
  facet normal  -0.000000e+000  -0.000000e+000  1.000000e+000
    outer loop
      vertex -5.000000e+001  1.000000e+002  2.000000e+001
      vertex  3.000000e+001  6.000000e+001  2.000000e+001
      vertex  3.382684e+001  5.923880e+001  2.000000e+001
    endloop
  endfacet
  facet normal  0.000000e+000  0.000000e+000  9.999999e-001
    outer loop
      vertex -5.000000e+001  2.000000e+001  2.000000e+001
      vertex  3.382684e+001  4.076120e+001  2.000000e+001
      vertex  3.000000e+001  4.000000e+001  2.000000e+001
    endloop
  endfacet
  facet normal  0.000000e+000  0.000000e+000  1.000000e+000
    outer loop
      vertex -5.000000e+001  2.000000e+001  2.000000e+001
      vertex  3.000000e+001  4.000000e+001  2.000000e+001
      vertex  2.617317e+001  4.076120e+001  2.000000e+001
    endloop
  endfacet
  facet normal  0.000000e+000  0.000000e+000  1.000000e+000
    outer loop
      vertex -5.000000e+001  2.000000e+001  2.000000e+001
      vertex  2.617317e+001  4.076120e+001  2.000000e+001
      vertex  2.292893e+001  4.292893e+001  2.000000e+001
    endloop
  endfacet
  facet normal  0.000000e+000  0.000000e+000  9.999999e-001
    outer loop
      vertex -5.000000e+001  2.000000e+001  2.000000e+001
      vertex  2.292893e+001  4.292893e+001  2.000000e+001
      vertex  2.076120e+001  4.617316e+001  2.000000e+001
    endloop
  endfacet
  facet normal  0.000000e+000  0.000000e+000  1.000000e+000
    outer loop
      vertex -5.000000e+001  2.000000e+001  2.000000e+001
      vertex  2.076120e+001  4.617316e+001  2.000000e+001
      vertex  3.826834e+000  4.076120e+001  2.000000e+001
    endloop
  endfacet
  facet normal  0.000000e+000  0.000000e+000  1.000000e+000
    outer loop
      vertex -5.000000e+001  2.000000e+001  2.000000e+001
      vertex  3.826834e+000  4.076120e+001  2.000000e+001
      vertex -2.449213e-015  4.000000e+001  2.000000e+001
    endloop
  endfacet
  facet normal  0.000000e+000  0.000000e+000  1.000000e+000
    outer loop
      vertex -5.000000e+001  2.000000e+001  2.000000e+001
      vertex -2.449213e-015  4.000000e+001  2.000000e+001
      vertex -3.826834e+000  4.076120e+001  2.000000e+001
    endloop
  endfacet
  facet normal  0.000000e+000  0.000000e+000  1.000000e+000
    outer loop
      vertex -5.000000e+001  2.000000e+001  2.000000e+001
      vertex -3.826834e+000  4.076120e+001  2.000000e+001
      vertex -7.071068e+000  4.292893e+001  2.000000e+001
    endloop
  endfacet
  facet normal  0.000000e+000  0.000000e+000  1.000000e+000
    outer loop
      vertex -5.000000e+001  2.000000e+001  2.000000e+001
      vertex -7.071068e+000  4.292893e+001  2.000000e+001
      vertex -9.238795e+000  4.617316e+001  2.000000e+001
    endloop
  endfacet
  facet normal  0.000000e+000  0.000000e+000  1.000000e+000
    outer loop
      vertex -5.000000e+001  2.000000e+001  2.000000e+001
      vertex -9.238795e+000  4.617316e+001  2.000000e+001
      vertex -1.000000e+001  5.000000e+001  2.000000e+001
    endloop
  endfacet
  facet normal  0.000000e+000  0.000000e+000  9.999999e-001
    outer loop
      vertex  5.000000e+001  2.000000e+001  2.000000e+001
      vertex  4.000000e+001  5.000000e+001  2.000000e+001
      vertex  3.923880e+001  4.617316e+001  2.000000e+001
    endloop
  endfacet
  facet normal  0.000000e+000  0.000000e+000  1.000000e+000
    outer loop
      vertex  5.000000e+001  2.000000e+001  2.000000e+001
      vertex  3.923880e+001  4.617316e+001  2.000000e+001
      vertex  3.707107e+001  4.292893e+001  2.000000e+001
    endloop
  endfacet
  facet normal  0.000000e+000  0.000000e+000  1.000000e+000
    outer loop
      vertex  5.000000e+001  2.000000e+001  2.000000e+001
      vertex  3.707107e+001  4.292893e+001  2.000000e+001
      vertex  3.382684e+001  4.076120e+001  2.000000e+001
    endloop
  endfacet
  facet normal  0.000000e+000  0.000000e+000  1.000000e+000
    outer loop
      vertex  5.000000e+001  2.000000e+001  2.000000e+001
      vertex  3.382684e+001  4.076120e+001  2.000000e+001
      vertex -5.000000e+001  2.000000e+001  2.000000e+001
    endloop
  endfacet
  facet normal  0.000000e+000  0.000000e+000 -1.000000e+000
    outer loop
      vertex  2.000000e+001  5.000000e+001  0.000000e+000
      vertex  7.071068e+000  4.292893e+001  0.000000e+000
      vertex  9.238795e+000  4.617316e+001  0.000000e+000
    endloop
  endfacet
  facet normal  0.000000e+000  0.000000e+000 -1.000000e+000
    outer loop
      vertex  2.000000e+001  5.000000e+001  0.000000e+000
      vertex  9.238795e+000  4.617316e+001  0.000000e+000
      vertex  1.000000e+001  5.000000e+001  0.000000e+000
    endloop
  endfacet
  facet normal  0.000000e+000  0.000000e+000 -1.000000e+000
    outer loop
      vertex  2.000000e+001  5.000000e+001  0.000000e+000
      vertex  1.000000e+001  5.000000e+001  0.000000e+000
      vertex  9.238795e+000  5.382684e+001  0.000000e+000
    endloop
  endfacet
  facet normal  0.000000e+000  0.000000e+000 -1.000000e+000
    outer loop
      vertex  2.000000e+001  5.000000e+001  0.000000e+000
      vertex  9.238795e+000  5.382684e+001  0.000000e+000
      vertex  7.071068e+000  5.707107e+001  0.000000e+000
    endloop
  endfacet
  facet normal  0.000000e+000  0.000000e+000 -1.000000e+000
    outer loop
      vertex  5.000000e+001  0.000000e+000  0.000000e+000
      vertex -5.000000e+001  0.000000e+000  0.000000e+000
      vertex  3.382684e+001  4.076120e+001  0.000000e+000
    endloop
  endfacet
  facet normal  0.000000e+000  0.000000e+000 -1.000000e+000
    outer loop
      vertex  5.000000e+001  0.000000e+000  0.000000e+000
      vertex  3.382684e+001  4.076120e+001  0.000000e+000
      vertex  3.707107e+001  4.292893e+001  0.000000e+000
    endloop
  endfacet
  facet normal  0.000000e+000  0.000000e+000 -1.000000e+000
    outer loop
      vertex  5.000000e+001  0.000000e+000  0.000000e+000
      vertex  3.707107e+001  4.292893e+001  0.000000e+000
      vertex  3.923880e+001  4.617316e+001  0.000000e+000
    endloop
  endfacet
  facet normal  0.000000e+000  0.000000e+000 -1.000000e+000
    outer loop
      vertex  5.000000e+001  0.000000e+000  0.000000e+000
      vertex  3.923880e+001  4.617316e+001  0.000000e+000
      vertex  4.000000e+001  5.000000e+001  0.000000e+000
    endloop
  endfacet
  facet normal  0.000000e+000  0.000000e+000 -1.000000e+000
    outer loop
      vertex  5.000000e+001  0.000000e+000  0.000000e+000
      vertex  4.000000e+001  5.000000e+001  0.000000e+000
      vertex  5.000000e+001  1.000000e+002  0.000000e+000
    endloop
  endfacet
  facet normal  0.000000e+000  0.000000e+000 -1.000000e+000
    outer loop
      vertex -5.000000e+001  0.000000e+000  0.000000e+000
      vertex -5.000000e+001  1.000000e+002  0.000000e+000
      vertex -1.000000e+001  5.000000e+001  0.000000e+000
    endloop
  endfacet
  facet normal  0.000000e+000  -0.000000e+000 -1.000000e+000
    outer loop
      vertex -5.000000e+001  0.000000e+000  0.000000e+000
      vertex -1.000000e+001  5.000000e+001  0.000000e+000
      vertex -9.238795e+000  4.617316e+001  0.000000e+000
    endloop
  endfacet
  facet normal  0.000000e+000  -0.000000e+000 -1.000000e+000
    outer loop
      vertex -5.000000e+001  0.000000e+000  0.000000e+000
      vertex -9.238795e+000  4.617316e+001  0.000000e+000
      vertex -7.071068e+000  4.292893e+001  0.000000e+000
    endloop
  endfacet
  facet normal  0.000000e+000  -0.000000e+000 -1.000000e+000
    outer loop
      vertex -5.000000e+001  0.000000e+000  0.000000e+000
      vertex -7.071068e+000  4.292893e+001  0.000000e+000
      vertex -3.826834e+000  4.076120e+001  0.000000e+000
    endloop
  endfacet
  facet normal  0.000000e+000  -0.000000e+000 -1.000000e+000
    outer loop
      vertex -5.000000e+001  0.000000e+000  0.000000e+000
      vertex -3.826834e+000  4.076120e+001  0.000000e+000
      vertex -1.836910e-015  4.000000e+001  0.000000e+000
    endloop
  endfacet
  facet normal  0.000000e+000  -0.000000e+000 -1.000000e+000
    outer loop
      vertex -5.000000e+001  0.000000e+000  0.000000e+000
      vertex -1.836910e-015  4.000000e+001  0.000000e+000
      vertex  3.826834e+000  4.076120e+001  0.000000e+000
    endloop
  endfacet
  facet normal  0.000000e+000  -0.000000e+000 -1.000000e+000
    outer loop
      vertex -5.000000e+001  0.000000e+000  0.000000e+000
      vertex  3.826834e+000  4.076120e+001  0.000000e+000
      vertex  7.071068e+000  4.292893e+001  0.000000e+000
    endloop
  endfacet
  facet normal  0.000000e+000  -0.000000e+000 -1.000000e+000
    outer loop
      vertex -5.000000e+001  0.000000e+000  0.000000e+000
      vertex  7.071068e+000  4.292893e+001  0.000000e+000
      vertex  2.000000e+001  5.000000e+001  0.000000e+000
    endloop
  endfacet
  facet normal  0.000000e+000  -0.000000e+000 -1.000000e+000
    outer loop
      vertex -5.000000e+001  0.000000e+000  0.000000e+000
      vertex  2.000000e+001  5.000000e+001  0.000000e+000
      vertex  2.076120e+001  4.617316e+001  0.000000e+000
    endloop
  endfacet
  facet normal  0.000000e+000  -0.000000e+000 -1.000000e+000
    outer loop
      vertex -5.000000e+001  0.000000e+000  0.000000e+000
      vertex  2.076120e+001  4.617316e+001  0.000000e+000
      vertex  2.292893e+001  4.292893e+001  0.000000e+000
    endloop
  endfacet
  facet normal  0.000000e+000  -0.000000e+000 -1.000000e+000
    outer loop
      vertex -5.000000e+001  0.000000e+000  0.000000e+000
      vertex  2.292893e+001  4.292893e+001  0.000000e+000
      vertex  2.617317e+001  4.076120e+001  0.000000e+000
    endloop
  endfacet
  facet normal  0.000000e+000  -0.000000e+000 -1.000000e+000
    outer loop
      vertex -5.000000e+001  0.000000e+000  0.000000e+000
      vertex  2.617317e+001  4.076120e+001  0.000000e+000
      vertex  3.000000e+001  4.000000e+001  0.000000e+000
    endloop
  endfacet
  facet normal  0.000000e+000  -0.000000e+000 -1.000000e+000
    outer loop
      vertex -5.000000e+001  0.000000e+000  0.000000e+000
      vertex  3.000000e+001  4.000000e+001  0.000000e+000
      vertex  3.382684e+001  4.076120e+001  0.000000e+000
    endloop
  endfacet
  facet normal  0.000000e+000  0.000000e+000 -1.000000e+000
    outer loop
      vertex -5.000000e+001  1.000000e+002  0.000000e+000
      vertex  3.382684e+001  5.923880e+001  0.000000e+000
      vertex  3.000000e+001  6.000000e+001  0.000000e+000
    endloop
  endfacet
  facet normal  -0.000000e+000  0.000000e+000 -1.000000e+000
    outer loop
      vertex -5.000000e+001  1.000000e+002  0.000000e+000
      vertex  3.000000e+001  6.000000e+001  0.000000e+000
      vertex  2.617317e+001  5.923880e+001  0.000000e+000
    endloop
  endfacet
  facet normal  -0.000000e+000  0.000000e+000 -1.000000e+000
    outer loop
      vertex -5.000000e+001  1.000000e+002  0.000000e+000
      vertex  2.617317e+001  5.923880e+001  0.000000e+000
      vertex  2.292893e+001  5.707107e+001  0.000000e+000
    endloop
  endfacet
  facet normal  -0.000000e+000  0.000000e+000 -1.000000e+000
    outer loop
      vertex -5.000000e+001  1.000000e+002  0.000000e+000
      vertex  2.292893e+001  5.707107e+001  0.000000e+000
      vertex  2.076120e+001  5.382684e+001  0.000000e+000
    endloop
  endfacet
  facet normal  -0.000000e+000  0.000000e+000 -1.000000e+000
    outer loop
      vertex -5.000000e+001  1.000000e+002  0.000000e+000
      vertex  2.076120e+001  5.382684e+001  0.000000e+000
      vertex  2.000000e+001  5.000000e+001  0.000000e+000
    endloop
  endfacet
  facet normal  0.000000e+000  0.000000e+000 -1.000000e+000
    outer loop
      vertex -5.000000e+001  1.000000e+002  0.000000e+000
      vertex  2.000000e+001  5.000000e+001  0.000000e+000
      vertex  7.071068e+000  5.707107e+001  0.000000e+000
    endloop
  endfacet
  facet normal  0.000000e+000  0.000000e+000 -1.000000e+000
    outer loop
      vertex -5.000000e+001  1.000000e+002  0.000000e+000
      vertex  7.071068e+000  5.707107e+001  0.000000e+000
      vertex  3.826834e+000  5.923880e+001  0.000000e+000
    endloop
  endfacet
  facet normal  0.000000e+000  0.000000e+000 -1.000000e+000
    outer loop
      vertex -5.000000e+001  1.000000e+002  0.000000e+000
      vertex  3.826834e+000  5.923880e+001  0.000000e+000
      vertex  6.123032e-016  6.000000e+001  0.000000e+000
    endloop
  endfacet
  facet normal  -0.000000e+000  0.000000e+000 -1.000000e+000
    outer loop
      vertex -5.000000e+001  1.000000e+002  0.000000e+000
      vertex  6.123032e-016  6.000000e+001  0.000000e+000
      vertex -3.826834e+000  5.923880e+001  0.000000e+000
    endloop
  endfacet
  facet normal  -0.000000e+000  0.000000e+000 -1.000000e+000
    outer loop
      vertex -5.000000e+001  1.000000e+002  0.000000e+000
      vertex -3.826834e+000  5.923880e+001  0.000000e+000
      vertex -7.071068e+000  5.707107e+001  0.000000e+000
    endloop
  endfacet
  facet normal  -0.000000e+000  0.000000e+000 -1.000000e+000
    outer loop
      vertex -5.000000e+001  1.000000e+002  0.000000e+000
      vertex -7.071068e+000  5.707107e+001  0.000000e+000
      vertex -9.238795e+000  5.382684e+001  0.000000e+000
    endloop
  endfacet
  facet normal  -0.000000e+000  0.000000e+000 -1.000000e+000
    outer loop
      vertex -5.000000e+001  1.000000e+002  0.000000e+000
      vertex -9.238795e+000  5.382684e+001  0.000000e+000
      vertex -1.000000e+001  5.000000e+001  0.000000e+000
    endloop
  endfacet
  facet normal  0.000000e+000  0.000000e+000 -1.000000e+000
    outer loop
      vertex  5.000000e+001  1.000000e+002  0.000000e+000
      vertex  4.000000e+001  5.000000e+001  0.000000e+000
      vertex  3.923880e+001  5.382684e+001  0.000000e+000
    endloop
  endfacet
  facet normal  0.000000e+000  0.000000e+000 -1.000000e+000
    outer loop
      vertex  5.000000e+001  1.000000e+002  0.000000e+000
      vertex  3.923880e+001  5.382684e+001  0.000000e+000
      vertex  3.707107e+001  5.707107e+001  0.000000e+000
    endloop
  endfacet
  facet normal  0.000000e+000  0.000000e+000 -1.000000e+000
    outer loop
      vertex  5.000000e+001  1.000000e+002  0.000000e+000
      vertex  3.707107e+001  5.707107e+001  0.000000e+000
      vertex  3.382684e+001  5.923880e+001  0.000000e+000
    endloop
  endfacet
  facet normal  0.000000e+000  0.000000e+000 -1.000000e+000
    outer loop
      vertex  5.000000e+001  1.000000e+002  0.000000e+000
      vertex  3.382684e+001  5.923880e+001  0.000000e+000
      vertex -5.000000e+001  1.000000e+002  0.000000e+000
    endloop
  endfacet
  facet normal  1.950901e-001 -9.807853e-001  0.000000e+000
    outer loop
      vertex  3.000000e+001  6.000000e+001  0.000000e+000
      vertex  2.617317e+001  5.923880e+001  2.000000e+001
      vertex  2.617317e+001  5.923880e+001  0.000000e+000
    endloop
  endfacet
  facet normal  5.555703e-001 -8.314695e-001  0.000000e+000
    outer loop
      vertex  2.617317e+001  5.923880e+001  0.000000e+000
      vertex  2.617317e+001  5.923880e+001  2.000000e+001
      vertex  2.292893e+001  5.707107e+001  2.000000e+001
    endloop
  endfacet
  facet normal  5.555703e-001 -8.314695e-001  0.000000e+000
    outer loop
      vertex  2.617317e+001  5.923880e+001  0.000000e+000
      vertex  2.292893e+001  5.707107e+001  2.000000e+001
      vertex  2.292893e+001  5.707107e+001  0.000000e+000
    endloop
  endfacet
  facet normal  8.314694e-001 -5.555705e-001  0.000000e+000
    outer loop
      vertex  2.292893e+001  5.707107e+001  0.000000e+000
      vertex  2.292893e+001  5.707107e+001  2.000000e+001
      vertex  2.076120e+001  5.382684e+001  2.000000e+001
    endloop
  endfacet
  facet normal  8.314694e-001 -5.555705e-001  0.000000e+000
    outer loop
      vertex  2.292893e+001  5.707107e+001  0.000000e+000
      vertex  2.076120e+001  5.382684e+001  2.000000e+001
      vertex  2.076120e+001  5.382684e+001  0.000000e+000
    endloop
  endfacet
  facet normal  9.807854e-001 -1.950900e-001  0.000000e+000
    outer loop
      vertex  2.076120e+001  5.382684e+001  0.000000e+000
      vertex  2.076120e+001  5.382684e+001  2.000000e+001
      vertex  2.000000e+001  5.000000e+001  2.000000e+001
    endloop
  endfacet
  facet normal  9.807854e-001 -1.950900e-001  0.000000e+000
    outer loop
      vertex  2.076120e+001  5.382684e+001  0.000000e+000
      vertex  2.000000e+001  5.000000e+001  2.000000e+001
      vertex  2.000000e+001  5.000000e+001  0.000000e+000
    endloop
  endfacet
  facet normal  1.950901e-001 -9.807853e-001  0.000000e+000
    outer loop
      vertex  2.617317e+001  5.923880e+001  2.000000e+001
      vertex  3.000000e+001  6.000000e+001  0.000000e+000
      vertex  3.000000e+001  6.000000e+001  2.000000e+001
    endloop
  endfacet
  facet normal -1.950900e-001 -9.807854e-001  -0.000000e+000
    outer loop
      vertex  3.000000e+001  6.000000e+001  2.000000e+001
      vertex  3.000000e+001  6.000000e+001  0.000000e+000
      vertex  3.382684e+001  5.923880e+001  0.000000e+000
    endloop
  endfacet
  facet normal -1.950900e-001 -9.807854e-001  0.000000e+000
    outer loop
      vertex  3.000000e+001  6.000000e+001  2.000000e+001
      vertex  3.382684e+001  5.923880e+001  0.000000e+000
      vertex  3.382684e+001  5.923880e+001  2.000000e+001
    endloop
  endfacet
  facet normal -5.555705e-001 -8.314694e-001  -0.000000e+000
    outer loop
      vertex  3.382684e+001  5.923880e+001  2.000000e+001
      vertex  3.382684e+001  5.923880e+001  0.000000e+000
      vertex  3.707107e+001  5.707107e+001  0.000000e+000
    endloop
  endfacet
  facet normal -5.555705e-001 -8.314694e-001  0.000000e+000
    outer loop
      vertex  3.382684e+001  5.923880e+001  2.000000e+001
      vertex  3.707107e+001  5.707107e+001  0.000000e+000
      vertex  3.707107e+001  5.707107e+001  2.000000e+001
    endloop
  endfacet
  facet normal -8.314694e-001 -5.555705e-001  -0.000000e+000
    outer loop
      vertex  3.707107e+001  5.707107e+001  2.000000e+001
      vertex  3.707107e+001  5.707107e+001  0.000000e+000
      vertex  3.923880e+001  5.382684e+001  0.000000e+000
    endloop
  endfacet
  facet normal -8.314694e-001 -5.555705e-001  0.000000e+000
    outer loop
      vertex  3.707107e+001  5.707107e+001  2.000000e+001
      vertex  3.923880e+001  5.382684e+001  0.000000e+000
      vertex  3.923880e+001  5.382684e+001  2.000000e+001
    endloop
  endfacet
  facet normal -9.807854e-001 -1.950900e-001  -0.000000e+000
    outer loop
      vertex  3.923880e+001  5.382684e+001  2.000000e+001
      vertex  3.923880e+001  5.382684e+001  0.000000e+000
      vertex  4.000000e+001  5.000000e+001  0.000000e+000
    endloop
  endfacet
  facet normal -9.807854e-001 -1.950900e-001  0.000000e+000
    outer loop
      vertex  3.923880e+001  5.382684e+001  2.000000e+001
      vertex  4.000000e+001  5.000000e+001  0.000000e+000
      vertex  4.000000e+001  5.000000e+001  2.000000e+001
    endloop
  endfacet
  facet normal -1.950900e-001  9.807854e-001  0.000000e+000
    outer loop
      vertex  3.000000e+001  4.000000e+001  0.000000e+000
      vertex  3.382684e+001  4.076120e+001  2.000000e+001
      vertex  3.382684e+001  4.076120e+001  0.000000e+000
    endloop
  endfacet
  facet normal -5.555705e-001  8.314694e-001  0.000000e+000
    outer loop
      vertex  3.382684e+001  4.076120e+001  0.000000e+000
      vertex  3.382684e+001  4.076120e+001  2.000000e+001
      vertex  3.707107e+001  4.292893e+001  2.000000e+001
    endloop
  endfacet
  facet normal -5.555705e-001  8.314694e-001  0.000000e+000
    outer loop
      vertex  3.382684e+001  4.076120e+001  0.000000e+000
      vertex  3.707107e+001  4.292893e+001  2.000000e+001
      vertex  3.707107e+001  4.292893e+001  0.000000e+000
    endloop
  endfacet
  facet normal -8.314694e-001  5.555705e-001  0.000000e+000
    outer loop
      vertex  3.707107e+001  4.292893e+001  0.000000e+000
      vertex  3.707107e+001  4.292893e+001  2.000000e+001
      vertex  3.923880e+001  4.617316e+001  2.000000e+001
    endloop
  endfacet
  facet normal -8.314694e-001  5.555705e-001  0.000000e+000
    outer loop
      vertex  3.707107e+001  4.292893e+001  0.000000e+000
      vertex  3.923880e+001  4.617316e+001  2.000000e+001
      vertex  3.923880e+001  4.617316e+001  0.000000e+000
    endloop
  endfacet
  facet normal -9.807854e-001  1.950900e-001  0.000000e+000
    outer loop
      vertex  3.923880e+001  4.617316e+001  0.000000e+000
      vertex  3.923880e+001  4.617316e+001  2.000000e+001
      vertex  4.000000e+001  5.000000e+001  2.000000e+001
    endloop
  endfacet
  facet normal -9.807854e-001  1.950900e-001  0.000000e+000
    outer loop
      vertex  3.923880e+001  4.617316e+001  0.000000e+000
      vertex  4.000000e+001  5.000000e+001  2.000000e+001
      vertex  4.000000e+001  5.000000e+001  0.000000e+000
    endloop
  endfacet
  facet normal -1.950900e-001  9.807854e-001  0.000000e+000
    outer loop
      vertex  3.382684e+001  4.076120e+001  2.000000e+001
      vertex  3.000000e+001  4.000000e+001  0.000000e+000
      vertex  3.000000e+001  4.000000e+001  2.000000e+001
    endloop
  endfacet
  facet normal  1.950901e-001  9.807853e-001  0.000000e+000
    outer loop
      vertex  3.000000e+001  4.000000e+001  2.000000e+001
      vertex  3.000000e+001  4.000000e+001  0.000000e+000
      vertex  2.617317e+001  4.076120e+001  0.000000e+000
    endloop
  endfacet
  facet normal  1.950901e-001  9.807853e-001  -0.000000e+000
    outer loop
      vertex  3.000000e+001  4.000000e+001  2.000000e+001
      vertex  2.617317e+001  4.076120e+001  0.000000e+000
      vertex  2.617317e+001  4.076120e+001  2.000000e+001
    endloop
  endfacet
  facet normal  5.555703e-001  8.314695e-001  0.000000e+000
    outer loop
      vertex  2.617317e+001  4.076120e+001  2.000000e+001
      vertex  2.617317e+001  4.076120e+001  0.000000e+000
      vertex  2.292893e+001  4.292893e+001  0.000000e+000
    endloop
  endfacet
  facet normal  5.555703e-001  8.314695e-001  -0.000000e+000
    outer loop
      vertex  2.617317e+001  4.076120e+001  2.000000e+001
      vertex  2.292893e+001  4.292893e+001  0.000000e+000
      vertex  2.292893e+001  4.292893e+001  2.000000e+001
    endloop
  endfacet
  facet normal  8.314694e-001  5.555705e-001  0.000000e+000
    outer loop
      vertex  2.292893e+001  4.292893e+001  2.000000e+001
      vertex  2.292893e+001  4.292893e+001  0.000000e+000
      vertex  2.076120e+001  4.617316e+001  0.000000e+000
    endloop
  endfacet
  facet normal  8.314694e-001  5.555705e-001  -0.000000e+000
    outer loop
      vertex  2.292893e+001  4.292893e+001  2.000000e+001
      vertex  2.076120e+001  4.617316e+001  0.000000e+000
      vertex  2.076120e+001  4.617316e+001  2.000000e+001
    endloop
  endfacet
  facet normal  9.807854e-001  1.950900e-001  0.000000e+000
    outer loop
      vertex  2.076120e+001  4.617316e+001  2.000000e+001
      vertex  2.076120e+001  4.617316e+001  0.000000e+000
      vertex  2.000000e+001  5.000000e+001  0.000000e+000
    endloop
  endfacet
  facet normal  9.807854e-001  1.950900e-001  -0.000000e+000
    outer loop
      vertex  2.076120e+001  4.617316e+001  2.000000e+001
      vertex  2.000000e+001  5.000000e+001  0.000000e+000
      vertex  2.000000e+001  5.000000e+001  2.000000e+001
    endloop
  endfacet
  facet normal  0.000000e+000  0.000000e+000 -1.000000e+000
    outer loop
      vertex  5.000000e+001  2.000000e+001  4.000000e+001
      vertex -5.000000e+001  2.000000e+001  4.000000e+001
      vertex  3.826834e+000  4.076120e+001  4.000000e+001
    endloop
  endfacet
  facet normal  0.000000e+000  0.000000e+000 -1.000000e+000
    outer loop
      vertex  5.000000e+001  2.000000e+001  4.000000e+001
      vertex  3.826834e+000  4.076120e+001  4.000000e+001
      vertex  7.071068e+000  4.292893e+001  4.000000e+001
    endloop
  endfacet
  facet normal  0.000000e+000  0.000000e+000 -1.000000e+000
    outer loop
      vertex  5.000000e+001  2.000000e+001  4.000000e+001
      vertex  7.071068e+000  4.292893e+001  4.000000e+001
      vertex  9.238795e+000  4.617316e+001  4.000000e+001
    endloop
  endfacet
  facet normal  0.000000e+000  0.000000e+000 -1.000000e+000
    outer loop
      vertex  5.000000e+001  2.000000e+001  4.000000e+001
      vertex  9.238795e+000  4.617316e+001  4.000000e+001
      vertex  1.000000e+001  5.000000e+001  4.000000e+001
    endloop
  endfacet
  facet normal  0.000000e+000  0.000000e+000 -1.000000e+000
    outer loop
      vertex  5.000000e+001  2.000000e+001  4.000000e+001
      vertex  1.000000e+001  5.000000e+001  4.000000e+001
      vertex  5.000000e+001  1.000000e+002  4.000000e+001
    endloop
  endfacet
  facet normal  0.000000e+000  0.000000e+000 -1.000000e+000
    outer loop
      vertex -5.000000e+001  2.000000e+001  4.000000e+001
      vertex -5.000000e+001  1.000000e+002  4.000000e+001
      vertex -1.000000e+001  5.000000e+001  4.000000e+001
    endloop
  endfacet
  facet normal  0.000000e+000  -0.000000e+000 -1.000000e+000
    outer loop
      vertex -5.000000e+001  2.000000e+001  4.000000e+001
      vertex -1.000000e+001  5.000000e+001  4.000000e+001
      vertex -9.238795e+000  4.617316e+001  4.000000e+001
    endloop
  endfacet
  facet normal  0.000000e+000  -0.000000e+000 -1.000000e+000
    outer loop
      vertex -5.000000e+001  2.000000e+001  4.000000e+001
      vertex -9.238795e+000  4.617316e+001  4.000000e+001
      vertex -7.071068e+000  4.292893e+001  4.000000e+001
    endloop
  endfacet
  facet normal  0.000000e+000  -0.000000e+000 -1.000000e+000
    outer loop
      vertex -5.000000e+001  2.000000e+001  4.000000e+001
      vertex -7.071068e+000  4.292893e+001  4.000000e+001
      vertex -3.826834e+000  4.076120e+001  4.000000e+001
    endloop
  endfacet
  facet normal  0.000000e+000  -0.000000e+000 -1.000000e+000
    outer loop
      vertex -5.000000e+001  2.000000e+001  4.000000e+001
      vertex -3.826834e+000  4.076120e+001  4.000000e+001
      vertex  1.224606e-015  4.000000e+001  4.000000e+001
    endloop
  endfacet
  facet normal  0.000000e+000  -0.000000e+000 -1.000000e+000
    outer loop
      vertex -5.000000e+001  2.000000e+001  4.000000e+001
      vertex  1.224606e-015  4.000000e+001  4.000000e+001
      vertex  3.826834e+000  4.076120e+001  4.000000e+001
    endloop
  endfacet
  facet normal  0.000000e+000  0.000000e+000 -1.000000e+000
    outer loop
      vertex -5.000000e+001  1.000000e+002  4.000000e+001
      vertex  7.071068e+000  5.707107e+001  4.000000e+001
      vertex  3.826834e+000  5.923880e+001  4.000000e+001
    endloop
  endfacet
  facet normal  0.000000e+000  0.000000e+000 -1.000000e+000
    outer loop
      vertex -5.000000e+001  1.000000e+002  4.000000e+001
      vertex  3.826834e+000  5.923880e+001  4.000000e+001
      vertex -6.728559e-016  6.000000e+001  4.000000e+001
    endloop
  endfacet
  facet normal  -0.000000e+000  0.000000e+000 -1.000000e+000
    outer loop
      vertex -5.000000e+001  1.000000e+002  4.000000e+001
      vertex -6.728559e-016  6.000000e+001  4.000000e+001
      vertex -3.826834e+000  5.923880e+001  4.000000e+001
    endloop
  endfacet
  facet normal  -0.000000e+000  0.000000e+000 -1.000000e+000
    outer loop
      vertex -5.000000e+001  1.000000e+002  4.000000e+001
      vertex -3.826834e+000  5.923880e+001  4.000000e+001
      vertex -7.071068e+000  5.707107e+001  4.000000e+001
    endloop
  endfacet
  facet normal  -0.000000e+000  0.000000e+000 -1.000000e+000
    outer loop
      vertex -5.000000e+001  1.000000e+002  4.000000e+001
      vertex -7.071068e+000  5.707107e+001  4.000000e+001
      vertex -9.238795e+000  5.382684e+001  4.000000e+001
    endloop
  endfacet
  facet normal  -0.000000e+000  0.000000e+000 -1.000000e+000
    outer loop
      vertex -5.000000e+001  1.000000e+002  4.000000e+001
      vertex -9.238795e+000  5.382684e+001  4.000000e+001
      vertex -1.000000e+001  5.000000e+001  4.000000e+001
    endloop
  endfacet
  facet normal  0.000000e+000  0.000000e+000 -1.000000e+000
    outer loop
      vertex  5.000000e+001  1.000000e+002  4.000000e+001
      vertex  1.000000e+001  5.000000e+001  4.000000e+001
      vertex  9.238795e+000  5.382684e+001  4.000000e+001
    endloop
  endfacet
  facet normal  0.000000e+000  0.000000e+000 -1.000000e+000
    outer loop
      vertex  5.000000e+001  1.000000e+002  4.000000e+001
      vertex  9.238795e+000  5.382684e+001  4.000000e+001
      vertex  7.071068e+000  5.707107e+001  4.000000e+001
    endloop
  endfacet
  facet normal  0.000000e+000  0.000000e+000 -1.000000e+000
    outer loop
      vertex  5.000000e+001  1.000000e+002  4.000000e+001
      vertex  7.071068e+000  5.707107e+001  4.000000e+001
      vertex -5.000000e+001  1.000000e+002  4.000000e+001
    endloop
  endfacet
  facet normal  -0.000000e+000  0.000000e+000  1.000000e+000
    outer loop
      vertex  5.000000e+001  1.000000e+002  6.000000e+001
      vertex -5.000000e+001  1.000000e+002  6.000000e+001
      vertex  7.071068e+000  5.707107e+001  6.000000e+001
    endloop
  endfacet
  facet normal  -0.000000e+000  0.000000e+000  1.000000e+000
    outer loop
      vertex  5.000000e+001  1.000000e+002  6.000000e+001
      vertex  7.071068e+000  5.707107e+001  6.000000e+001
      vertex  9.238795e+000  5.382684e+001  6.000000e+001
    endloop
  endfacet
  facet normal  -0.000000e+000  0.000000e+000  1.000000e+000
    outer loop
      vertex  5.000000e+001  1.000000e+002  6.000000e+001
      vertex  9.238795e+000  5.382684e+001  6.000000e+001
      vertex  1.000000e+001  5.000000e+001  6.000000e+001
    endloop
  endfacet
  facet normal  -0.000000e+000  0.000000e+000  1.000000e+000
    outer loop
      vertex  5.000000e+001  1.000000e+002  6.000000e+001
      vertex  1.000000e+001  5.000000e+001  6.000000e+001
      vertex  5.000000e+001  2.000000e+001  6.000000e+001
    endloop
  endfacet
  facet normal  0.000000e+000  0.000000e+000  1.000000e+000
    outer loop
      vertex -5.000000e+001  1.000000e+002  6.000000e+001
      vertex -5.000000e+001  2.000000e+001  6.000000e+001
      vertex -1.000000e+001  5.000000e+001  6.000000e+001
    endloop
  endfacet
  facet normal  0.000000e+000  -0.000000e+000  1.000000e+000
    outer loop
      vertex -5.000000e+001  1.000000e+002  6.000000e+001
      vertex -1.000000e+001  5.000000e+001  6.000000e+001
      vertex -9.238795e+000  5.382684e+001  6.000000e+001
    endloop
  endfacet
  facet normal  0.000000e+000  -0.000000e+000  1.000000e+000
    outer loop
      vertex -5.000000e+001  1.000000e+002  6.000000e+001
      vertex -9.238795e+000  5.382684e+001  6.000000e+001
      vertex -7.071068e+000  5.707107e+001  6.000000e+001
    endloop
  endfacet
  facet normal  0.000000e+000  -0.000000e+000  1.000000e+000
    outer loop
      vertex -5.000000e+001  1.000000e+002  6.000000e+001
      vertex -7.071068e+000  5.707107e+001  6.000000e+001
      vertex -3.826834e+000  5.923880e+001  6.000000e+001
    endloop
  endfacet
  facet normal  0.000000e+000  -0.000000e+000  1.000000e+000
    outer loop
      vertex -5.000000e+001  1.000000e+002  6.000000e+001
      vertex -3.826834e+000  5.923880e+001  6.000000e+001
      vertex  3.000963e-015  6.000000e+001  6.000000e+001
    endloop
  endfacet
  facet normal  -0.000000e+000  -0.000000e+000  1.000000e+000
    outer loop
      vertex -5.000000e+001  1.000000e+002  6.000000e+001
      vertex  3.000963e-015  6.000000e+001  6.000000e+001
      vertex  3.826834e+000  5.923880e+001  6.000000e+001
    endloop
  endfacet
  facet normal  -0.000000e+000  -0.000000e+000  1.000000e+000
    outer loop
      vertex -5.000000e+001  1.000000e+002  6.000000e+001
      vertex  3.826834e+000  5.923880e+001  6.000000e+001
      vertex  7.071068e+000  5.707107e+001  6.000000e+001
    endloop
  endfacet
  facet normal  0.000000e+000  0.000000e+000  1.000000e+000
    outer loop
      vertex -5.000000e+001  2.000000e+001  6.000000e+001
      vertex  3.826834e+000  4.076120e+001  6.000000e+001
      vertex -2.449213e-015  4.000000e+001  6.000000e+001
    endloop
  endfacet
  facet normal  0.000000e+000  0.000000e+000  1.000000e+000
    outer loop
      vertex -5.000000e+001  2.000000e+001  6.000000e+001
      vertex -2.449213e-015  4.000000e+001  6.000000e+001
      vertex -3.826834e+000  4.076120e+001  6.000000e+001
    endloop
  endfacet
  facet normal  0.000000e+000  0.000000e+000  1.000000e+000
    outer loop
      vertex -5.000000e+001  2.000000e+001  6.000000e+001
      vertex -3.826834e+000  4.076120e+001  6.000000e+001
      vertex -7.071068e+000  4.292893e+001  6.000000e+001
    endloop
  endfacet
  facet normal  0.000000e+000  0.000000e+000  1.000000e+000
    outer loop
      vertex -5.000000e+001  2.000000e+001  6.000000e+001
      vertex -7.071068e+000  4.292893e+001  6.000000e+001
      vertex -9.238795e+000  4.617316e+001  6.000000e+001
    endloop
  endfacet
  facet normal  0.000000e+000  0.000000e+000  1.000000e+000
    outer loop
      vertex -5.000000e+001  2.000000e+001  6.000000e+001
      vertex -9.238795e+000  4.617316e+001  6.000000e+001
      vertex -1.000000e+001  5.000000e+001  6.000000e+001
    endloop
  endfacet
  facet normal  0.000000e+000  0.000000e+000  1.000000e+000
    outer loop
      vertex  5.000000e+001  2.000000e+001  6.000000e+001
      vertex  1.000000e+001  5.000000e+001  6.000000e+001
      vertex  9.238795e+000  4.617316e+001  6.000000e+001
    endloop
  endfacet
  facet normal  0.000000e+000  0.000000e+000  1.000000e+000
    outer loop
      vertex  5.000000e+001  2.000000e+001  6.000000e+001
      vertex  9.238795e+000  4.617316e+001  6.000000e+001
      vertex  7.071068e+000  4.292893e+001  6.000000e+001
    endloop
  endfacet
  facet normal  0.000000e+000  0.000000e+000  1.000000e+000
    outer loop
      vertex  5.000000e+001  2.000000e+001  6.000000e+001
      vertex  7.071068e+000  4.292893e+001  6.000000e+001
      vertex  3.826834e+000  4.076120e+001  6.000000e+001
    endloop
  endfacet
  facet normal  0.000000e+000  0.000000e+000  1.000000e+000
    outer loop
      vertex  5.000000e+001  2.000000e+001  6.000000e+001
      vertex  3.826834e+000  4.076120e+001  6.000000e+001
      vertex -5.000000e+001  2.000000e+001  6.000000e+001
    endloop
  endfacet
  facet normal  0.000000e+000  0.000000e+000 -1.000000e+000
    outer loop
      vertex  5.000000e+001  2.000000e+001  8.000000e+001
      vertex -5.000000e+001  2.000000e+001  8.000000e+001
      vertex  3.826834e+000  4.076120e+001  8.000000e+001
    endloop
  endfacet
  facet normal  0.000000e+000  0.000000e+000 -1.000000e+000
    outer loop
      vertex  5.000000e+001  2.000000e+001  8.000000e+001
      vertex  3.826834e+000  4.076120e+001  8.000000e+001
      vertex  7.071068e+000  4.292893e+001  8.000000e+001
    endloop
  endfacet
  facet normal  0.000000e+000  0.000000e+000 -1.000000e+000
    outer loop
      vertex  5.000000e+001  2.000000e+001  8.000000e+001
      vertex  7.071068e+000  4.292893e+001  8.000000e+001
      vertex  9.238795e+000  4.617316e+001  8.000000e+001
    endloop
  endfacet
  facet normal  0.000000e+000  0.000000e+000 -1.000000e+000
    outer loop
      vertex  5.000000e+001  2.000000e+001  8.000000e+001
      vertex  9.238795e+000  4.617316e+001  8.000000e+001
      vertex  1.000000e+001  5.000000e+001  8.000000e+001
    endloop
  endfacet
  facet normal  0.000000e+000  0.000000e+000 -1.000000e+000
    outer loop
      vertex  5.000000e+001  2.000000e+001  8.000000e+001
      vertex  1.000000e+001  5.000000e+001  8.000000e+001
      vertex  5.000000e+001  8.000000e+001  8.000000e+001
    endloop
  endfacet
  facet normal  0.000000e+000  0.000000e+000 -1.000000e+000
    outer loop
      vertex -5.000000e+001  2.000000e+001  8.000000e+001
      vertex -5.000000e+001  8.000000e+001  8.000000e+001
      vertex -1.000000e+001  5.000000e+001  8.000000e+001
    endloop
  endfacet
  facet normal  0.000000e+000  -0.000000e+000 -1.000000e+000
    outer loop
      vertex -5.000000e+001  2.000000e+001  8.000000e+001
      vertex -1.000000e+001  5.000000e+001  8.000000e+001
      vertex -9.238795e+000  4.617316e+001  8.000000e+001
    endloop
  endfacet
  facet normal  0.000000e+000  -0.000000e+000 -1.000000e+000
    outer loop
      vertex -5.000000e+001  2.000000e+001  8.000000e+001
      vertex -9.238795e+000  4.617316e+001  8.000000e+001
      vertex -7.071068e+000  4.292893e+001  8.000000e+001
    endloop
  endfacet
  facet normal  0.000000e+000  -0.000000e+000 -1.000000e+000
    outer loop
      vertex -5.000000e+001  2.000000e+001  8.000000e+001
      vertex -7.071068e+000  4.292893e+001  8.000000e+001
      vertex -3.826834e+000  4.076120e+001  8.000000e+001
    endloop
  endfacet
  facet normal  0.000000e+000  -0.000000e+000 -1.000000e+000
    outer loop
      vertex -5.000000e+001  2.000000e+001  8.000000e+001
      vertex -3.826834e+000  4.076120e+001  8.000000e+001
      vertex  1.224606e-015  4.000000e+001  8.000000e+001
    endloop
  endfacet
  facet normal  0.000000e+000  -0.000000e+000 -1.000000e+000
    outer loop
      vertex -5.000000e+001  2.000000e+001  8.000000e+001
      vertex  1.224606e-015  4.000000e+001  8.000000e+001
      vertex  3.826834e+000  4.076120e+001  8.000000e+001
    endloop
  endfacet
  facet normal  0.000000e+000  0.000000e+000 -1.000000e+000
    outer loop
      vertex -5.000000e+001  8.000000e+001  8.000000e+001
      vertex  3.826834e+000  5.923880e+001  8.000000e+001
      vertex -6.728559e-016  6.000000e+001  8.000000e+001
    endloop
  endfacet
  facet normal  -0.000000e+000  0.000000e+000 -1.000000e+000
    outer loop
      vertex -5.000000e+001  8.000000e+001  8.000000e+001
      vertex -6.728559e-016  6.000000e+001  8.000000e+001
      vertex -3.826834e+000  5.923880e+001  8.000000e+001
    endloop
  endfacet
  facet normal  -0.000000e+000  0.000000e+000 -1.000000e+000
    outer loop
      vertex -5.000000e+001  8.000000e+001  8.000000e+001
      vertex -3.826834e+000  5.923880e+001  8.000000e+001
      vertex -7.071068e+000  5.707107e+001  8.000000e+001
    endloop
  endfacet
  facet normal  -0.000000e+000  0.000000e+000 -1.000000e+000
    outer loop
      vertex -5.000000e+001  8.000000e+001  8.000000e+001
      vertex -7.071068e+000  5.707107e+001  8.000000e+001
      vertex -9.238795e+000  5.382684e+001  8.000000e+001
    endloop
  endfacet
  facet normal  -0.000000e+000  0.000000e+000 -1.000000e+000
    outer loop
      vertex -5.000000e+001  8.000000e+001  8.000000e+001
      vertex -9.238795e+000  5.382684e+001  8.000000e+001
      vertex -1.000000e+001  5.000000e+001  8.000000e+001
    endloop
  endfacet
  facet normal  0.000000e+000  0.000000e+000 -1.000000e+000
    outer loop
      vertex  5.000000e+001  8.000000e+001  8.000000e+001
      vertex  1.000000e+001  5.000000e+001  8.000000e+001
      vertex  9.238795e+000  5.382684e+001  8.000000e+001
    endloop
  endfacet
  facet normal  0.000000e+000  0.000000e+000 -1.000000e+000
    outer loop
      vertex  5.000000e+001  8.000000e+001  8.000000e+001
      vertex  9.238795e+000  5.382684e+001  8.000000e+001
      vertex  7.071068e+000  5.707107e+001  8.000000e+001
    endloop
  endfacet
  facet normal  0.000000e+000  0.000000e+000 -1.000000e+000
    outer loop
      vertex  5.000000e+001  8.000000e+001  8.000000e+001
      vertex  7.071068e+000  5.707107e+001  8.000000e+001
      vertex  3.826834e+000  5.923880e+001  8.000000e+001
    endloop
  endfacet
  facet normal  0.000000e+000  0.000000e+000 -1.000000e+000
    outer loop
      vertex  5.000000e+001  8.000000e+001  8.000000e+001
      vertex  3.826834e+000  5.923880e+001  8.000000e+001
      vertex -5.000000e+001  8.000000e+001  8.000000e+001
    endloop
  endfacet
  facet normal  -0.000000e+000  0.000000e+000  1.000000e+000
    outer loop
      vertex  5.000000e+001  8.000000e+001  1.000000e+002
      vertex -5.000000e+001  8.000000e+001  1.000000e+002
      vertex  3.826834e+000  5.923880e+001  1.000000e+002
    endloop
  endfacet
  facet normal  -0.000000e+000  0.000000e+000  1.000000e+000
    outer loop
      vertex  5.000000e+001  8.000000e+001  1.000000e+002
      vertex  3.826834e+000  5.923880e+001  1.000000e+002
      vertex  7.071068e+000  5.707107e+001  1.000000e+002
    endloop
  endfacet
  facet normal  -0.000000e+000  0.000000e+000  1.000000e+000
    outer loop
      vertex  5.000000e+001  8.000000e+001  1.000000e+002
      vertex  7.071068e+000  5.707107e+001  1.000000e+002
      vertex  9.238795e+000  5.382684e+001  1.000000e+002
    endloop
  endfacet
  facet normal  -0.000000e+000  0.000000e+000  1.000000e+000
    outer loop
      vertex  5.000000e+001  8.000000e+001  1.000000e+002
      vertex  9.238795e+000  5.382684e+001  1.000000e+002
      vertex  1.000000e+001  5.000000e+001  1.000000e+002
    endloop
  endfacet
  facet normal  -0.000000e+000  0.000000e+000  1.000000e+000
    outer loop
      vertex  5.000000e+001  8.000000e+001  1.000000e+002
      vertex  1.000000e+001  5.000000e+001  1.000000e+002
      vertex  5.000000e+001  0.000000e+000  1.000000e+002
    endloop
  endfacet
  facet normal  0.000000e+000  0.000000e+000  1.000000e+000
    outer loop
      vertex -5.000000e+001  8.000000e+001  1.000000e+002
      vertex -5.000000e+001  0.000000e+000  1.000000e+002
      vertex -1.000000e+001  5.000000e+001  1.000000e+002
    endloop
  endfacet
  facet normal  0.000000e+000  -0.000000e+000  1.000000e+000
    outer loop
      vertex -5.000000e+001  8.000000e+001  1.000000e+002
      vertex -1.000000e+001  5.000000e+001  1.000000e+002
      vertex -9.238795e+000  5.382684e+001  1.000000e+002
    endloop
  endfacet
  facet normal  0.000000e+000  -0.000000e+000  1.000000e+000
    outer loop
      vertex -5.000000e+001  8.000000e+001  1.000000e+002
      vertex -9.238795e+000  5.382684e+001  1.000000e+002
      vertex -7.071068e+000  5.707107e+001  1.000000e+002
    endloop
  endfacet
  facet normal  0.000000e+000  -0.000000e+000  1.000000e+000
    outer loop
      vertex -5.000000e+001  8.000000e+001  1.000000e+002
      vertex -7.071068e+000  5.707107e+001  1.000000e+002
      vertex -3.826834e+000  5.923880e+001  1.000000e+002
    endloop
  endfacet
  facet normal  0.000000e+000  -0.000000e+000  1.000000e+000
    outer loop
      vertex -5.000000e+001  8.000000e+001  1.000000e+002
      vertex -3.826834e+000  5.923880e+001  1.000000e+002
      vertex  3.000963e-015  6.000000e+001  1.000000e+002
    endloop
  endfacet
  facet normal  -0.000000e+000  -0.000000e+000  1.000000e+000
    outer loop
      vertex -5.000000e+001  8.000000e+001  1.000000e+002
      vertex  3.000963e-015  6.000000e+001  1.000000e+002
      vertex  3.826834e+000  5.923880e+001  1.000000e+002
    endloop
  endfacet
  facet normal  0.000000e+000  0.000000e+000  1.000000e+000
    outer loop
      vertex -5.000000e+001  0.000000e+000  1.000000e+002
      vertex  7.071068e+000  4.292893e+001  1.000000e+002
      vertex  3.826834e+000  4.076120e+001  1.000000e+002
    endloop
  endfacet
  facet normal  0.000000e+000  0.000000e+000  1.000000e+000
    outer loop
      vertex -5.000000e+001  0.000000e+000  1.000000e+002
      vertex  3.826834e+000  4.076120e+001  1.000000e+002
      vertex -2.449213e-015  4.000000e+001  1.000000e+002
    endloop
  endfacet
  facet normal  0.000000e+000  0.000000e+000  1.000000e+000
    outer loop
      vertex -5.000000e+001  0.000000e+000  1.000000e+002
      vertex -2.449213e-015  4.000000e+001  1.000000e+002
      vertex -3.826834e+000  4.076120e+001  1.000000e+002
    endloop
  endfacet
  facet normal  0.000000e+000  0.000000e+000  1.000000e+000
    outer loop
      vertex -5.000000e+001  0.000000e+000  1.000000e+002
      vertex -3.826834e+000  4.076120e+001  1.000000e+002
      vertex -7.071068e+000  4.292893e+001  1.000000e+002
    endloop
  endfacet
  facet normal  0.000000e+000  0.000000e+000  1.000000e+000
    outer loop
      vertex -5.000000e+001  0.000000e+000  1.000000e+002
      vertex -7.071068e+000  4.292893e+001  1.000000e+002
      vertex -9.238795e+000  4.617316e+001  1.000000e+002
    endloop
  endfacet
  facet normal  0.000000e+000  0.000000e+000  1.000000e+000
    outer loop
      vertex -5.000000e+001  0.000000e+000  1.000000e+002
      vertex -9.238795e+000  4.617316e+001  1.000000e+002
      vertex -1.000000e+001  5.000000e+001  1.000000e+002
    endloop
  endfacet
  facet normal  0.000000e+000  0.000000e+000  1.000000e+000
    outer loop
      vertex  5.000000e+001  0.000000e+000  1.000000e+002
      vertex  1.000000e+001  5.000000e+001  1.000000e+002
      vertex  9.238795e+000  4.617316e+001  1.000000e+002
    endloop
  endfacet
  facet normal  0.000000e+000  0.000000e+000  1.000000e+000
    outer loop
      vertex  5.000000e+001  0.000000e+000  1.000000e+002
      vertex  9.238795e+000  4.617316e+001  1.000000e+002
      vertex  7.071068e+000  4.292893e+001  1.000000e+002
    endloop
  endfacet
  facet normal  0.000000e+000  0.000000e+000  1.000000e+000
    outer loop
      vertex  5.000000e+001  0.000000e+000  1.000000e+002
      vertex  7.071068e+000  4.292893e+001  1.000000e+002
      vertex -5.000000e+001  0.000000e+000  1.000000e+002
    endloop
  endfacet
  facet normal  1.950901e-001 -9.807854e-001  0.000000e+000
    outer loop
      vertex  6.123032e-016  6.000000e+001  0.000000e+000
      vertex -3.826834e+000  5.923880e+001  2.000000e+001
      vertex -3.826834e+000  5.923880e+001  0.000000e+000
    endloop
  endfacet
  facet normal  5.555704e-001 -8.314694e-001  0.000000e+000
    outer loop
      vertex -3.826834e+000  5.923880e+001  0.000000e+000
      vertex -3.826834e+000  5.923880e+001  2.000000e+001
      vertex -7.071068e+000  5.707107e+001  2.000000e+001
    endloop
  endfacet
  facet normal  5.555704e-001 -8.314694e-001  0.000000e+000
    outer loop
      vertex -3.826834e+000  5.923880e+001  0.000000e+000
      vertex -7.071068e+000  5.707107e+001  2.000000e+001
      vertex -7.071068e+000  5.707107e+001  0.000000e+000
    endloop
  endfacet
  facet normal  8.314695e-001 -5.555704e-001  0.000000e+000
    outer loop
      vertex -7.071068e+000  5.707107e+001  0.000000e+000
      vertex -7.071068e+000  5.707107e+001  2.000000e+001
      vertex -9.238795e+000  5.382684e+001  2.000000e+001
    endloop
  endfacet
  facet normal  8.314695e-001 -5.555704e-001  0.000000e+000
    outer loop
      vertex -7.071068e+000  5.707107e+001  0.000000e+000
      vertex -9.238795e+000  5.382684e+001  2.000000e+001
      vertex -9.238795e+000  5.382684e+001  0.000000e+000
    endloop
  endfacet
  facet normal  9.807853e-001 -1.950903e-001  0.000000e+000
    outer loop
      vertex -9.238795e+000  5.382684e+001  0.000000e+000
      vertex -9.238795e+000  5.382684e+001  2.000000e+001
      vertex -1.000000e+001  5.000000e+001  2.000000e+001
    endloop
  endfacet
  facet normal  9.807853e-001 -1.950903e-001  0.000000e+000
    outer loop
      vertex -9.238795e+000  5.382684e+001  0.000000e+000
      vertex -1.000000e+001  5.000000e+001  2.000000e+001
      vertex -1.000000e+001  5.000000e+001  0.000000e+000
    endloop
  endfacet
  facet normal  1.950901e-001 -9.807854e-001 -2.330020e-017
    outer loop
      vertex -3.826834e+000  5.923880e+001  2.000000e+001
      vertex  6.123032e-016  6.000000e+001  0.000000e+000
      vertex  3.000963e-015  6.000000e+001  2.000000e+001
    endloop
  endfacet
  facet normal -1.950901e-001 -9.807854e-001  2.330020e-017
    outer loop
      vertex  3.000963e-015  6.000000e+001  2.000000e+001
      vertex  6.123032e-016  6.000000e+001  0.000000e+000
      vertex  3.826834e+000  5.923880e+001  0.000000e+000
    endloop
  endfacet
  facet normal -1.950901e-001 -9.807854e-001  0.000000e+000
    outer loop
      vertex  3.000963e-015  6.000000e+001  2.000000e+001
      vertex  3.826834e+000  5.923880e+001  0.000000e+000
      vertex  3.826834e+000  5.923880e+001  2.000000e+001
    endloop
  endfacet
  facet normal -5.555704e-001 -8.314694e-001  -0.000000e+000
    outer loop
      vertex  3.826834e+000  5.923880e+001  2.000000e+001
      vertex  3.826834e+000  5.923880e+001  0.000000e+000
      vertex  7.071068e+000  5.707107e+001  0.000000e+000
    endloop
  endfacet
  facet normal -5.555704e-001 -8.314694e-001  0.000000e+000
    outer loop
      vertex  3.826834e+000  5.923880e+001  2.000000e+001
      vertex  7.071068e+000  5.707107e+001  0.000000e+000
      vertex  7.071068e+000  5.707107e+001  2.000000e+001
    endloop
  endfacet
  facet normal -8.314695e-001 -5.555704e-001  -0.000000e+000
    outer loop
      vertex  7.071068e+000  5.707107e+001  2.000000e+001
      vertex  7.071068e+000  5.707107e+001  0.000000e+000
      vertex  9.238795e+000  5.382684e+001  0.000000e+000
    endloop
  endfacet
  facet normal -8.314695e-001 -5.555704e-001  0.000000e+000
    outer loop
      vertex  7.071068e+000  5.707107e+001  2.000000e+001
      vertex  9.238795e+000  5.382684e+001  0.000000e+000
      vertex  9.238795e+000  5.382684e+001  2.000000e+001
    endloop
  endfacet
  facet normal -9.807853e-001 -1.950903e-001  -0.000000e+000
    outer loop
      vertex  9.238795e+000  5.382684e+001  2.000000e+001
      vertex  9.238795e+000  5.382684e+001  0.000000e+000
      vertex  1.000000e+001  5.000000e+001  0.000000e+000
    endloop
  endfacet
  facet normal -9.807853e-001 -1.950903e-001  0.000000e+000
    outer loop
      vertex  9.238795e+000  5.382684e+001  2.000000e+001
      vertex  1.000000e+001  5.000000e+001  0.000000e+000
      vertex  1.000000e+001  5.000000e+001  2.000000e+001
    endloop
  endfacet
  facet normal  1.950901e-001 -9.807854e-001  0.000000e+000
    outer loop
      vertex -6.728559e-016  6.000000e+001  4.000000e+001
      vertex -3.826834e+000  5.923880e+001  6.000000e+001
      vertex -3.826834e+000  5.923880e+001  4.000000e+001
    endloop
  endfacet
  facet normal  5.555704e-001 -8.314694e-001  0.000000e+000
    outer loop
      vertex -3.826834e+000  5.923880e+001  4.000000e+001
      vertex -3.826834e+000  5.923880e+001  6.000000e+001
      vertex -7.071068e+000  5.707107e+001  6.000000e+001
    endloop
  endfacet
  facet normal  5.555704e-001 -8.314694e-001  0.000000e+000
    outer loop
      vertex -3.826834e+000  5.923880e+001  4.000000e+001
      vertex -7.071068e+000  5.707107e+001  6.000000e+001
      vertex -7.071068e+000  5.707107e+001  4.000000e+001
    endloop
  endfacet
  facet normal  8.314695e-001 -5.555704e-001  0.000000e+000
    outer loop
      vertex -7.071068e+000  5.707107e+001  4.000000e+001
      vertex -7.071068e+000  5.707107e+001  6.000000e+001
      vertex -9.238795e+000  5.382684e+001  6.000000e+001
    endloop
  endfacet
  facet normal  8.314695e-001 -5.555704e-001  0.000000e+000
    outer loop
      vertex -7.071068e+000  5.707107e+001  4.000000e+001
      vertex -9.238795e+000  5.382684e+001  6.000000e+001
      vertex -9.238795e+000  5.382684e+001  4.000000e+001
    endloop
  endfacet
  facet normal  9.807853e-001 -1.950903e-001  0.000000e+000
    outer loop
      vertex -9.238795e+000  5.382684e+001  4.000000e+001
      vertex -9.238795e+000  5.382684e+001  6.000000e+001
      vertex -1.000000e+001  5.000000e+001  6.000000e+001
    endloop
  endfacet
  facet normal  9.807853e-001 -1.950903e-001  0.000000e+000
    outer loop
      vertex -9.238795e+000  5.382684e+001  4.000000e+001
      vertex -1.000000e+001  5.000000e+001  6.000000e+001
      vertex -1.000000e+001  5.000000e+001  4.000000e+001
    endloop
  endfacet
  facet normal  1.950901e-001 -9.807854e-001 -3.583628e-017
    outer loop
      vertex -3.826834e+000  5.923880e+001  6.000000e+001
      vertex -6.728559e-016  6.000000e+001  4.000000e+001
      vertex  3.000963e-015  6.000000e+001  6.000000e+001
    endloop
  endfacet
  facet normal -1.950901e-001 -9.807854e-001  3.583628e-017
    outer loop
      vertex  3.000963e-015  6.000000e+001  6.000000e+001
      vertex -6.728559e-016  6.000000e+001  4.000000e+001
      vertex  3.826834e+000  5.923880e+001  4.000000e+001
    endloop
  endfacet
  facet normal -1.950901e-001 -9.807854e-001  0.000000e+000
    outer loop
      vertex  3.000963e-015  6.000000e+001  6.000000e+001
      vertex  3.826834e+000  5.923880e+001  4.000000e+001
      vertex  3.826834e+000  5.923880e+001  6.000000e+001
    endloop
  endfacet
  facet normal -5.555704e-001 -8.314694e-001  -0.000000e+000
    outer loop
      vertex  3.826834e+000  5.923880e+001  6.000000e+001
      vertex  3.826834e+000  5.923880e+001  4.000000e+001
      vertex  7.071068e+000  5.707107e+001  4.000000e+001
    endloop
  endfacet
  facet normal -5.555704e-001 -8.314694e-001  0.000000e+000
    outer loop
      vertex  3.826834e+000  5.923880e+001  6.000000e+001
      vertex  7.071068e+000  5.707107e+001  4.000000e+001
      vertex  7.071068e+000  5.707107e+001  6.000000e+001
    endloop
  endfacet
  facet normal -8.314695e-001 -5.555704e-001  -0.000000e+000
    outer loop
      vertex  7.071068e+000  5.707107e+001  6.000000e+001
      vertex  7.071068e+000  5.707107e+001  4.000000e+001
      vertex  9.238795e+000  5.382684e+001  4.000000e+001
    endloop
  endfacet
  facet normal -8.314695e-001 -5.555704e-001  0.000000e+000
    outer loop
      vertex  7.071068e+000  5.707107e+001  6.000000e+001
      vertex  9.238795e+000  5.382684e+001  4.000000e+001
      vertex  9.238795e+000  5.382684e+001  6.000000e+001
    endloop
  endfacet
  facet normal -9.807853e-001 -1.950903e-001  -0.000000e+000
    outer loop
      vertex  9.238795e+000  5.382684e+001  6.000000e+001
      vertex  9.238795e+000  5.382684e+001  4.000000e+001
      vertex  1.000000e+001  5.000000e+001  4.000000e+001
    endloop
  endfacet
  facet normal -9.807853e-001 -1.950903e-001  0.000000e+000
    outer loop
      vertex  9.238795e+000  5.382684e+001  6.000000e+001
      vertex  1.000000e+001  5.000000e+001  4.000000e+001
      vertex  1.000000e+001  5.000000e+001  6.000000e+001
    endloop
  endfacet
  facet normal  1.950901e-001 -9.807854e-001  0.000000e+000
    outer loop
      vertex -6.728559e-016  6.000000e+001  8.000000e+001
      vertex -3.826834e+000  5.923880e+001  1.000000e+002
      vertex -3.826834e+000  5.923880e+001  8.000000e+001
    endloop
  endfacet
  facet normal  5.555704e-001 -8.314694e-001  0.000000e+000
    outer loop
      vertex -3.826834e+000  5.923880e+001  8.000000e+001
      vertex -3.826834e+000  5.923880e+001  1.000000e+002
      vertex -7.071068e+000  5.707107e+001  1.000000e+002
    endloop
  endfacet
  facet normal  5.555704e-001 -8.314694e-001  0.000000e+000
    outer loop
      vertex -3.826834e+000  5.923880e+001  8.000000e+001
      vertex -7.071068e+000  5.707107e+001  1.000000e+002
      vertex -7.071068e+000  5.707107e+001  8.000000e+001
    endloop
  endfacet
  facet normal  8.314695e-001 -5.555704e-001  0.000000e+000
    outer loop
      vertex -7.071068e+000  5.707107e+001  8.000000e+001
      vertex -7.071068e+000  5.707107e+001  1.000000e+002
      vertex -9.238795e+000  5.382684e+001  1.000000e+002
    endloop
  endfacet
  facet normal  8.314695e-001 -5.555704e-001  0.000000e+000
    outer loop
      vertex -7.071068e+000  5.707107e+001  8.000000e+001
      vertex -9.238795e+000  5.382684e+001  1.000000e+002
      vertex -9.238795e+000  5.382684e+001  8.000000e+001
    endloop
  endfacet
  facet normal  9.807853e-001 -1.950903e-001  0.000000e+000
    outer loop
      vertex -9.238795e+000  5.382684e+001  8.000000e+001
      vertex -9.238795e+000  5.382684e+001  1.000000e+002
      vertex -1.000000e+001  5.000000e+001  1.000000e+002
    endloop
  endfacet
  facet normal  9.807853e-001 -1.950903e-001  0.000000e+000
    outer loop
      vertex -9.238795e+000  5.382684e+001  8.000000e+001
      vertex -1.000000e+001  5.000000e+001  1.000000e+002
      vertex -1.000000e+001  5.000000e+001  8.000000e+001
    endloop
  endfacet
  facet normal  1.950901e-001 -9.807854e-001 -3.583628e-017
    outer loop
      vertex -3.826834e+000  5.923880e+001  1.000000e+002
      vertex -6.728559e-016  6.000000e+001  8.000000e+001
      vertex  3.000963e-015  6.000000e+001  1.000000e+002
    endloop
  endfacet
  facet normal -1.950901e-001 -9.807854e-001  3.583628e-017
    outer loop
      vertex  3.000963e-015  6.000000e+001  1.000000e+002
      vertex -6.728559e-016  6.000000e+001  8.000000e+001
      vertex  3.826834e+000  5.923880e+001  8.000000e+001
    endloop
  endfacet
  facet normal -1.950901e-001 -9.807854e-001  0.000000e+000
    outer loop
      vertex  3.000963e-015  6.000000e+001  1.000000e+002
      vertex  3.826834e+000  5.923880e+001  8.000000e+001
      vertex  3.826834e+000  5.923880e+001  1.000000e+002
    endloop
  endfacet
  facet normal -5.555704e-001 -8.314694e-001  -0.000000e+000
    outer loop
      vertex  3.826834e+000  5.923880e+001  1.000000e+002
      vertex  3.826834e+000  5.923880e+001  8.000000e+001
      vertex  7.071068e+000  5.707107e+001  8.000000e+001
    endloop
  endfacet
  facet normal -5.555704e-001 -8.314694e-001  0.000000e+000
    outer loop
      vertex  3.826834e+000  5.923880e+001  1.000000e+002
      vertex  7.071068e+000  5.707107e+001  8.000000e+001
      vertex  7.071068e+000  5.707107e+001  1.000000e+002
    endloop
  endfacet
  facet normal -8.314695e-001 -5.555704e-001  -0.000000e+000
    outer loop
      vertex  7.071068e+000  5.707107e+001  1.000000e+002
      vertex  7.071068e+000  5.707107e+001  8.000000e+001
      vertex  9.238795e+000  5.382684e+001  8.000000e+001
    endloop
  endfacet
  facet normal -8.314695e-001 -5.555704e-001  0.000000e+000
    outer loop
      vertex  7.071068e+000  5.707107e+001  1.000000e+002
      vertex  9.238795e+000  5.382684e+001  8.000000e+001
      vertex  9.238795e+000  5.382684e+001  1.000000e+002
    endloop
  endfacet
  facet normal -9.807853e-001 -1.950903e-001  -0.000000e+000
    outer loop
      vertex  9.238795e+000  5.382684e+001  1.000000e+002
      vertex  9.238795e+000  5.382684e+001  8.000000e+001
      vertex  1.000000e+001  5.000000e+001  8.000000e+001
    endloop
  endfacet
  facet normal -9.807853e-001 -1.950903e-001  0.000000e+000
    outer loop
      vertex  9.238795e+000  5.382684e+001  1.000000e+002
      vertex  1.000000e+001  5.000000e+001  8.000000e+001
      vertex  1.000000e+001  5.000000e+001  1.000000e+002
    endloop
  endfacet
  facet normal -1.950901e-001  9.807854e-001  0.000000e+000
    outer loop
      vertex -1.836910e-015  4.000000e+001  0.000000e+000
      vertex  3.826834e+000  4.076120e+001  2.000000e+001
      vertex  3.826834e+000  4.076120e+001  0.000000e+000
    endloop
  endfacet
  facet normal -5.555704e-001  8.314694e-001  0.000000e+000
    outer loop
      vertex  3.826834e+000  4.076120e+001  0.000000e+000
      vertex  3.826834e+000  4.076120e+001  2.000000e+001
      vertex  7.071068e+000  4.292893e+001  2.000000e+001
    endloop
  endfacet
  facet normal -5.555704e-001  8.314694e-001  0.000000e+000
    outer loop
      vertex  3.826834e+000  4.076120e+001  0.000000e+000
      vertex  7.071068e+000  4.292893e+001  2.000000e+001
      vertex  7.071068e+000  4.292893e+001  0.000000e+000
    endloop
  endfacet
  facet normal -8.314695e-001  5.555704e-001  0.000000e+000
    outer loop
      vertex  7.071068e+000  4.292893e+001  0.000000e+000
      vertex  7.071068e+000  4.292893e+001  2.000000e+001
      vertex  9.238795e+000  4.617316e+001  2.000000e+001
    endloop
  endfacet
  facet normal -8.314695e-001  5.555704e-001  0.000000e+000
    outer loop
      vertex  7.071068e+000  4.292893e+001  0.000000e+000
      vertex  9.238795e+000  4.617316e+001  2.000000e+001
      vertex  9.238795e+000  4.617316e+001  0.000000e+000
    endloop
  endfacet
  facet normal -9.807853e-001  1.950903e-001  0.000000e+000
    outer loop
      vertex  9.238795e+000  4.617316e+001  0.000000e+000
      vertex  9.238795e+000  4.617316e+001  2.000000e+001
      vertex  1.000000e+001  5.000000e+001  2.000000e+001
    endloop
  endfacet
  facet normal -9.807853e-001  1.950903e-001  0.000000e+000
    outer loop
      vertex  9.238795e+000  4.617316e+001  0.000000e+000
      vertex  1.000000e+001  5.000000e+001  2.000000e+001
      vertex  1.000000e+001  5.000000e+001  0.000000e+000
    endloop
  endfacet
  facet normal -1.950901e-001  9.807854e-001 -5.972715e-018
    outer loop
      vertex  3.826834e+000  4.076120e+001  2.000000e+001
      vertex -1.836910e-015  4.000000e+001  0.000000e+000
      vertex -2.449213e-015  4.000000e+001  2.000000e+001
    endloop
  endfacet
  facet normal  1.950901e-001  9.807854e-001  5.972715e-018
    outer loop
      vertex -2.449213e-015  4.000000e+001  2.000000e+001
      vertex -1.836910e-015  4.000000e+001  0.000000e+000
      vertex -3.826834e+000  4.076120e+001  0.000000e+000
    endloop
  endfacet
  facet normal  1.950901e-001  9.807854e-001  -0.000000e+000
    outer loop
      vertex -2.449213e-015  4.000000e+001  2.000000e+001
      vertex -3.826834e+000  4.076120e+001  0.000000e+000
      vertex -3.826834e+000  4.076120e+001  2.000000e+001
    endloop
  endfacet
  facet normal  5.555704e-001  8.314694e-001  0.000000e+000
    outer loop
      vertex -3.826834e+000  4.076120e+001  2.000000e+001
      vertex -3.826834e+000  4.076120e+001  0.000000e+000
      vertex -7.071068e+000  4.292893e+001  0.000000e+000
    endloop
  endfacet
  facet normal  5.555704e-001  8.314694e-001  -0.000000e+000
    outer loop
      vertex -3.826834e+000  4.076120e+001  2.000000e+001
      vertex -7.071068e+000  4.292893e+001  0.000000e+000
      vertex -7.071068e+000  4.292893e+001  2.000000e+001
    endloop
  endfacet
  facet normal  8.314695e-001  5.555704e-001  0.000000e+000
    outer loop
      vertex -7.071068e+000  4.292893e+001  2.000000e+001
      vertex -7.071068e+000  4.292893e+001  0.000000e+000
      vertex -9.238795e+000  4.617316e+001  0.000000e+000
    endloop
  endfacet
  facet normal  8.314695e-001  5.555704e-001  -0.000000e+000
    outer loop
      vertex -7.071068e+000  4.292893e+001  2.000000e+001
      vertex -9.238795e+000  4.617316e+001  0.000000e+000
      vertex -9.238795e+000  4.617316e+001  2.000000e+001
    endloop
  endfacet
  facet normal  9.807853e-001  1.950903e-001  0.000000e+000
    outer loop
      vertex -9.238795e+000  4.617316e+001  2.000000e+001
      vertex -9.238795e+000  4.617316e+001  0.000000e+000
      vertex -1.000000e+001  5.000000e+001  0.000000e+000
    endloop
  endfacet
  facet normal  9.807853e-001  1.950903e-001  -0.000000e+000
    outer loop
      vertex -9.238795e+000  4.617316e+001  2.000000e+001
      vertex -1.000000e+001  5.000000e+001  0.000000e+000
      vertex -1.000000e+001  5.000000e+001  2.000000e+001
    endloop
  endfacet
  facet normal -1.950901e-001  9.807854e-001  0.000000e+000
    outer loop
      vertex  1.224606e-015  4.000000e+001  4.000000e+001
      vertex  3.826834e+000  4.076120e+001  6.000000e+001
      vertex  3.826834e+000  4.076120e+001  4.000000e+001
    endloop
  endfacet
  facet normal -5.555704e-001  8.314694e-001  0.000000e+000
    outer loop
      vertex  3.826834e+000  4.076120e+001  4.000000e+001
      vertex  3.826834e+000  4.076120e+001  6.000000e+001
      vertex  7.071068e+000  4.292893e+001  6.000000e+001
    endloop
  endfacet
  facet normal -5.555704e-001  8.314694e-001  0.000000e+000
    outer loop
      vertex  3.826834e+000  4.076120e+001  4.000000e+001
      vertex  7.071068e+000  4.292893e+001  6.000000e+001
      vertex  7.071068e+000  4.292893e+001  4.000000e+001
    endloop
  endfacet
  facet normal -8.314695e-001  5.555704e-001  0.000000e+000
    outer loop
      vertex  7.071068e+000  4.292893e+001  4.000000e+001
      vertex  7.071068e+000  4.292893e+001  6.000000e+001
      vertex  9.238795e+000  4.617316e+001  6.000000e+001
    endloop
  endfacet
  facet normal -8.314695e-001  5.555704e-001  0.000000e+000
    outer loop
      vertex  7.071068e+000  4.292893e+001  4.000000e+001
      vertex  9.238795e+000  4.617316e+001  6.000000e+001
      vertex  9.238795e+000  4.617316e+001  4.000000e+001
    endloop
  endfacet
  facet normal -9.807853e-001  1.950903e-001  0.000000e+000
    outer loop
      vertex  9.238795e+000  4.617316e+001  4.000000e+001
      vertex  9.238795e+000  4.617316e+001  6.000000e+001
      vertex  1.000000e+001  5.000000e+001  6.000000e+001
    endloop
  endfacet
  facet normal -9.807853e-001  1.950903e-001  0.000000e+000
    outer loop
      vertex  9.238795e+000  4.617316e+001  4.000000e+001
      vertex  1.000000e+001  5.000000e+001  6.000000e+001
      vertex  1.000000e+001  5.000000e+001  4.000000e+001
    endloop
  endfacet
  facet normal -1.950901e-001  9.807854e-001 -3.583628e-017
    outer loop
      vertex  3.826834e+000  4.076120e+001  6.000000e+001
      vertex  1.224606e-015  4.000000e+001  4.000000e+001
      vertex -2.449213e-015  4.000000e+001  6.000000e+001
    endloop
  endfacet
  facet normal  1.950901e-001  9.807854e-001  3.583628e-017
    outer loop
      vertex -2.449213e-015  4.000000e+001  6.000000e+001
      vertex  1.224606e-015  4.000000e+001  4.000000e+001
      vertex -3.826834e+000  4.076120e+001  4.000000e+001
    endloop
  endfacet
  facet normal  1.950901e-001  9.807854e-001  -0.000000e+000
    outer loop
      vertex -2.449213e-015  4.000000e+001  6.000000e+001
      vertex -3.826834e+000  4.076120e+001  4.000000e+001
      vertex -3.826834e+000  4.076120e+001  6.000000e+001
    endloop
  endfacet
  facet normal  5.555704e-001  8.314694e-001  0.000000e+000
    outer loop
      vertex -3.826834e+000  4.076120e+001  6.000000e+001
      vertex -3.826834e+000  4.076120e+001  4.000000e+001
      vertex -7.071068e+000  4.292893e+001  4.000000e+001
    endloop
  endfacet
  facet normal  5.555704e-001  8.314694e-001  -0.000000e+000
    outer loop
      vertex -3.826834e+000  4.076120e+001  6.000000e+001
      vertex -7.071068e+000  4.292893e+001  4.000000e+001
      vertex -7.071068e+000  4.292893e+001  6.000000e+001
    endloop
  endfacet
  facet normal  8.314695e-001  5.555704e-001  0.000000e+000
    outer loop
      vertex -7.071068e+000  4.292893e+001  6.000000e+001
      vertex -7.071068e+000  4.292893e+001  4.000000e+001
      vertex -9.238795e+000  4.617316e+001  4.000000e+001
    endloop
  endfacet
  facet normal  8.314695e-001  5.555704e-001  -0.000000e+000
    outer loop
      vertex -7.071068e+000  4.292893e+001  6.000000e+001
      vertex -9.238795e+000  4.617316e+001  4.000000e+001
      vertex -9.238795e+000  4.617316e+001  6.000000e+001
    endloop
  endfacet
  facet normal  9.807853e-001  1.950903e-001  0.000000e+000
    outer loop
      vertex -9.238795e+000  4.617316e+001  6.000000e+001
      vertex -9.238795e+000  4.617316e+001  4.000000e+001
      vertex -1.000000e+001  5.000000e+001  4.000000e+001
    endloop
  endfacet
  facet normal  9.807853e-001  1.950903e-001  -0.000000e+000
    outer loop
      vertex -9.238795e+000  4.617316e+001  6.000000e+001
      vertex -1.000000e+001  5.000000e+001  4.000000e+001
      vertex -1.000000e+001  5.000000e+001  6.000000e+001
    endloop
  endfacet
  facet normal -1.950901e-001  9.807854e-001  0.000000e+000
    outer loop
      vertex  1.224606e-015  4.000000e+001  8.000000e+001
      vertex  3.826834e+000  4.076120e+001  1.000000e+002
      vertex  3.826834e+000  4.076120e+001  8.000000e+001
    endloop
  endfacet
  facet normal -5.555704e-001  8.314694e-001  0.000000e+000
    outer loop
      vertex  3.826834e+000  4.076120e+001  8.000000e+001
      vertex  3.826834e+000  4.076120e+001  1.000000e+002
      vertex  7.071068e+000  4.292893e+001  1.000000e+002
    endloop
  endfacet
  facet normal -5.555704e-001  8.314694e-001  0.000000e+000
    outer loop
      vertex  3.826834e+000  4.076120e+001  8.000000e+001
      vertex  7.071068e+000  4.292893e+001  1.000000e+002
      vertex  7.071068e+000  4.292893e+001  8.000000e+001
    endloop
  endfacet
  facet normal -8.314695e-001  5.555704e-001  0.000000e+000
    outer loop
      vertex  7.071068e+000  4.292893e+001  8.000000e+001
      vertex  7.071068e+000  4.292893e+001  1.000000e+002
      vertex  9.238795e+000  4.617316e+001  1.000000e+002
    endloop
  endfacet
  facet normal -8.314695e-001  5.555704e-001  0.000000e+000
    outer loop
      vertex  7.071068e+000  4.292893e+001  8.000000e+001
      vertex  9.238795e+000  4.617316e+001  1.000000e+002
      vertex  9.238795e+000  4.617316e+001  8.000000e+001
    endloop
  endfacet
  facet normal -9.807853e-001  1.950903e-001  0.000000e+000
    outer loop
      vertex  9.238795e+000  4.617316e+001  8.000000e+001
      vertex  9.238795e+000  4.617316e+001  1.000000e+002
      vertex  1.000000e+001  5.000000e+001  1.000000e+002
    endloop
  endfacet
  facet normal -9.807853e-001  1.950903e-001  0.000000e+000
    outer loop
      vertex  9.238795e+000  4.617316e+001  8.000000e+001
      vertex  1.000000e+001  5.000000e+001  1.000000e+002
      vertex  1.000000e+001  5.000000e+001  8.000000e+001
    endloop
  endfacet
  facet normal -1.950901e-001  9.807854e-001 -3.583628e-017
    outer loop
      vertex  3.826834e+000  4.076120e+001  1.000000e+002
      vertex  1.224606e-015  4.000000e+001  8.000000e+001
      vertex -2.449213e-015  4.000000e+001  1.000000e+002
    endloop
  endfacet
  facet normal  1.950901e-001  9.807854e-001  3.583628e-017
    outer loop
      vertex -2.449213e-015  4.000000e+001  1.000000e+002
      vertex  1.224606e-015  4.000000e+001  8.000000e+001
      vertex -3.826834e+000  4.076120e+001  8.000000e+001
    endloop
  endfacet
  facet normal  1.950901e-001  9.807854e-001  -0.000000e+000
    outer loop
      vertex -2.449213e-015  4.000000e+001  1.000000e+002
      vertex -3.826834e+000  4.076120e+001  8.000000e+001
      vertex -3.826834e+000  4.076120e+001  1.000000e+002
    endloop
  endfacet
  facet normal  5.555704e-001  8.314694e-001  0.000000e+000
    outer loop
      vertex -3.826834e+000  4.076120e+001  1.000000e+002
      vertex -3.826834e+000  4.076120e+001  8.000000e+001
      vertex -7.071068e+000  4.292893e+001  8.000000e+001
    endloop
  endfacet
  facet normal  5.555704e-001  8.314694e-001  -0.000000e+000
    outer loop
      vertex -3.826834e+000  4.076120e+001  1.000000e+002
      vertex -7.071068e+000  4.292893e+001  8.000000e+001
      vertex -7.071068e+000  4.292893e+001  1.000000e+002
    endloop
  endfacet
  facet normal  8.314695e-001  5.555704e-001  0.000000e+000
    outer loop
      vertex -7.071068e+000  4.292893e+001  1.000000e+002
      vertex -7.071068e+000  4.292893e+001  8.000000e+001
      vertex -9.238795e+000  4.617316e+001  8.000000e+001
    endloop
  endfacet
  facet normal  8.314695e-001  5.555704e-001  -0.000000e+000
    outer loop
      vertex -7.071068e+000  4.292893e+001  1.000000e+002
      vertex -9.238795e+000  4.617316e+001  8.000000e+001
      vertex -9.238795e+000  4.617316e+001  1.000000e+002
    endloop
  endfacet
  facet normal  9.807853e-001  1.950903e-001  0.000000e+000
    outer loop
      vertex -9.238795e+000  4.617316e+001  1.000000e+002
      vertex -9.238795e+000  4.617316e+001  8.000000e+001
      vertex -1.000000e+001  5.000000e+001  8.000000e+001
    endloop
  endfacet
  facet normal  9.807853e-001  1.950903e-001  -0.000000e+000
    outer loop
      vertex -9.238795e+000  4.617316e+001  1.000000e+002
      vertex -1.000000e+001  5.000000e+001  8.000000e+001
      vertex -1.000000e+001  5.000000e+001  1.000000e+002
    endloop
  endfacet
  facet normal  1.000000e+000  0.000000e+000  0.000000e+000
    outer loop
      vertex  5.000000e+001  8.000000e+001  1.000000e+002
      vertex  5.000000e+001  2.000000e+001  8.000000e+001
      vertex  5.000000e+001  8.000000e+001  8.000000e+001
    endloop
  endfacet
  facet normal  1.000000e+000  0.000000e+000  0.000000e+000
    outer loop
      vertex  5.000000e+001  0.000000e+000  1.000000e+002
      vertex  5.000000e+001  0.000000e+000  0.000000e+000
      vertex  5.000000e+001  2.000000e+001  2.000000e+001
    endloop
  endfacet
  facet normal  1.000000e+000  0.000000e+000  -0.000000e+000
    outer loop
      vertex  5.000000e+001  0.000000e+000  1.000000e+002
      vertex  5.000000e+001  2.000000e+001  2.000000e+001
      vertex  5.000000e+001  2.000000e+001  4.000000e+001
    endloop
  endfacet
  facet normal  1.000000e+000  0.000000e+000  -0.000000e+000
    outer loop
      vertex  5.000000e+001  0.000000e+000  1.000000e+002
      vertex  5.000000e+001  2.000000e+001  4.000000e+001
      vertex  5.000000e+001  2.000000e+001  6.000000e+001
    endloop
  endfacet
  facet normal  1.000000e+000  0.000000e+000  -0.000000e+000
    outer loop
      vertex  5.000000e+001  0.000000e+000  1.000000e+002
      vertex  5.000000e+001  2.000000e+001  6.000000e+001
      vertex  5.000000e+001  2.000000e+001  8.000000e+001
    endloop
  endfacet
  facet normal  1.000000e+000  0.000000e+000  -0.000000e+000
    outer loop
      vertex  5.000000e+001  0.000000e+000  1.000000e+002
      vertex  5.000000e+001  2.000000e+001  8.000000e+001
      vertex  5.000000e+001  8.000000e+001  1.000000e+002
    endloop
  endfacet
  facet normal  1.000000e+000  0.000000e+000  0.000000e+000
    outer loop
      vertex  5.000000e+001  2.000000e+001  4.000000e+001
      vertex  5.000000e+001  1.000000e+002  4.000000e+001
      vertex  5.000000e+001  2.000000e+001  6.000000e+001
    endloop
  endfacet
  facet normal  1.000000e+000  -0.000000e+000  0.000000e+000
    outer loop
      vertex  5.000000e+001  2.000000e+001  6.000000e+001
      vertex  5.000000e+001  1.000000e+002  4.000000e+001
      vertex  5.000000e+001  1.000000e+002  6.000000e+001
    endloop
  endfacet
  facet normal  1.000000e+000  0.000000e+000  0.000000e+000
    outer loop
      vertex  5.000000e+001  0.000000e+000  0.000000e+000
      vertex  5.000000e+001  1.000000e+002  0.000000e+000
      vertex  5.000000e+001  2.000000e+001  2.000000e+001
    endloop
  endfacet
  facet normal  1.000000e+000  -0.000000e+000  0.000000e+000
    outer loop
      vertex  5.000000e+001  2.000000e+001  2.000000e+001
      vertex  5.000000e+001  1.000000e+002  0.000000e+000
      vertex  5.000000e+001  1.000000e+002  2.000000e+001
    endloop
  endfacet
  facet normal -1.000000e+000  0.000000e+000  0.000000e+000
    outer loop
      vertex -5.000000e+001  8.000000e+001  8.000000e+001
      vertex -5.000000e+001  2.000000e+001  8.000000e+001
      vertex -5.000000e+001  8.000000e+001  1.000000e+002
    endloop
  endfacet
  facet normal -1.000000e+000  -0.000000e+000  0.000000e+000
    outer loop
      vertex -5.000000e+001  0.000000e+000  1.000000e+002
      vertex -5.000000e+001  8.000000e+001  1.000000e+002
      vertex -5.000000e+001  2.000000e+001  8.000000e+001
    endloop
  endfacet
  facet normal -1.000000e+000  -0.000000e+000  -0.000000e+000
    outer loop
      vertex -5.000000e+001  0.000000e+000  1.000000e+002
      vertex -5.000000e+001  2.000000e+001  8.000000e+001
      vertex -5.000000e+001  2.000000e+001  6.000000e+001
    endloop
  endfacet
  facet normal -1.000000e+000  -0.000000e+000  -0.000000e+000
    outer loop
      vertex -5.000000e+001  0.000000e+000  1.000000e+002
      vertex -5.000000e+001  2.000000e+001  6.000000e+001
      vertex -5.000000e+001  2.000000e+001  4.000000e+001
    endloop
  endfacet
  facet normal -1.000000e+000  -0.000000e+000  -0.000000e+000
    outer loop
      vertex -5.000000e+001  0.000000e+000  1.000000e+002
      vertex -5.000000e+001  2.000000e+001  4.000000e+001
      vertex -5.000000e+001  2.000000e+001  2.000000e+001
    endloop
  endfacet
  facet normal -1.000000e+000  -0.000000e+000  0.000000e+000
    outer loop
      vertex -5.000000e+001  0.000000e+000  1.000000e+002
      vertex -5.000000e+001  2.000000e+001  2.000000e+001
      vertex -5.000000e+001  0.000000e+000  0.000000e+000
    endloop
  endfacet
  facet normal -1.000000e+000  0.000000e+000  0.000000e+000
    outer loop
      vertex -5.000000e+001  2.000000e+001  4.000000e+001
      vertex -5.000000e+001  2.000000e+001  6.000000e+001
      vertex -5.000000e+001  1.000000e+002  4.000000e+001
    endloop
  endfacet
  facet normal -1.000000e+000  0.000000e+000  0.000000e+000
    outer loop
      vertex -5.000000e+001  1.000000e+002  4.000000e+001
      vertex -5.000000e+001  2.000000e+001  6.000000e+001
      vertex -5.000000e+001  1.000000e+002  6.000000e+001
    endloop
  endfacet
  facet normal -1.000000e+000  0.000000e+000  -0.000000e+000
    outer loop
      vertex -5.000000e+001  0.000000e+000  0.000000e+000
      vertex -5.000000e+001  2.000000e+001  2.000000e+001
      vertex -5.000000e+001  1.000000e+002  0.000000e+000
    endloop
  endfacet
  facet normal -1.000000e+000  0.000000e+000  0.000000e+000
    outer loop
      vertex -5.000000e+001  1.000000e+002  0.000000e+000
      vertex -5.000000e+001  2.000000e+001  2.000000e+001
      vertex -5.000000e+001  1.000000e+002  2.000000e+001
    endloop
  endfacet
  facet normal  0.000000e+000 -1.000000e+000  0.000000e+000
    outer loop
      vertex -5.000000e+001  0.000000e+000  1.000000e+002
      vertex -5.000000e+001  0.000000e+000  0.000000e+000
      vertex  5.000000e+001  0.000000e+000  1.000000e+002
    endloop
  endfacet
  facet normal  0.000000e+000 -1.000000e+000  -0.000000e+000
    outer loop
      vertex  5.000000e+001  0.000000e+000  1.000000e+002
      vertex -5.000000e+001  0.000000e+000  0.000000e+000
      vertex  5.000000e+001  0.000000e+000  0.000000e+000
    endloop
  endfacet
  facet normal  0.000000e+000  1.000000e+000  0.000000e+000
    outer loop
      vertex -5.000000e+001  8.000000e+001  8.000000e+001
      vertex -5.000000e+001  8.000000e+001  1.000000e+002
      vertex  5.000000e+001  8.000000e+001  8.000000e+001
    endloop
  endfacet
  facet normal  0.000000e+000  1.000000e+000  -0.000000e+000
    outer loop
      vertex  5.000000e+001  8.000000e+001  8.000000e+001
      vertex -5.000000e+001  8.000000e+001  1.000000e+002
      vertex  5.000000e+001  8.000000e+001  1.000000e+002
    endloop
  endfacet
  facet normal  0.000000e+000  1.000000e+000  0.000000e+000
    outer loop
      vertex -5.000000e+001  2.000000e+001  6.000000e+001
      vertex -5.000000e+001  2.000000e+001  8.000000e+001
      vertex  5.000000e+001  2.000000e+001  6.000000e+001
    endloop
  endfacet
  facet normal  0.000000e+000  1.000000e+000  -0.000000e+000
    outer loop
      vertex  5.000000e+001  2.000000e+001  6.000000e+001
      vertex -5.000000e+001  2.000000e+001  8.000000e+001
      vertex  5.000000e+001  2.000000e+001  8.000000e+001
    endloop
  endfacet
  facet normal  0.000000e+000  1.000000e+000  0.000000e+000
    outer loop
      vertex -5.000000e+001  1.000000e+002  4.000000e+001
      vertex -5.000000e+001  1.000000e+002  6.000000e+001
      vertex  5.000000e+001  1.000000e+002  4.000000e+001
    endloop
  endfacet
  facet normal  0.000000e+000  1.000000e+000  -0.000000e+000
    outer loop
      vertex  5.000000e+001  1.000000e+002  4.000000e+001
      vertex -5.000000e+001  1.000000e+002  6.000000e+001
      vertex  5.000000e+001  1.000000e+002  6.000000e+001
    endloop
  endfacet
  facet normal  0.000000e+000  1.000000e+000  0.000000e+000
    outer loop
      vertex -5.000000e+001  2.000000e+001  2.000000e+001
      vertex -5.000000e+001  2.000000e+001  4.000000e+001
      vertex  5.000000e+001  2.000000e+001  2.000000e+001
    endloop
  endfacet
  facet normal  0.000000e+000  1.000000e+000  -0.000000e+000
    outer loop
      vertex  5.000000e+001  2.000000e+001  2.000000e+001
      vertex -5.000000e+001  2.000000e+001  4.000000e+001
      vertex  5.000000e+001  2.000000e+001  4.000000e+001
    endloop
  endfacet
  facet normal  0.000000e+000  1.000000e+000  0.000000e+000
    outer loop
      vertex -5.000000e+001  1.000000e+002  0.000000e+000
      vertex -5.000000e+001  1.000000e+002  2.000000e+001
      vertex  5.000000e+001  1.000000e+002  0.000000e+000
    endloop
  endfacet
  facet normal  0.000000e+000  1.000000e+000  -0.000000e+000
    outer loop
      vertex  5.000000e+001  1.000000e+002  0.000000e+000
      vertex -5.000000e+001  1.000000e+002  2.000000e+001
      vertex  5.000000e+001  1.000000e+002  2.000000e+001
    endloop
  endfacet
endsolid CATIA STL
